<svg enable-background="new 0 0 1080 1080" version="1.1" viewBox="0 0 1080 1080" xml:space="preserve" xmlns="http://www.w3.org/2000/svg"><path style="fill:none;" d="m199.3 715"/><path style="fill:none;" d="m-37.5 336.7"/><path style="fill:#007FFF;" d="m544.2 715-28.9 50h336.6s57.8 0.2 28.9-50-168.3-291.5-168.3-291.5l-28.9 50 127.9 221.5s11.8 20-11.6 20h-255.7z"/><path style="fill:#007FFF;" d="m488.9 715-28.9 50h-208.2-23.1s-58.3 0.1-29.4-50 311.9-540.2 311.9-540.2 28.8-50.1 57.7 0c29 50.1 29 50.1 29 50.1l87 150.6-28.9 50-104.2-180.3s-11.5-20.2-23.1 0-82.6 143.2-82.6 143.2l-177.1 306.6s-11.5 20 11.6 20h23.1 185.2z"/><path style="fill:#007FFF;" d="M540,0C241.8,0,0,241.8,0,540s241.8,540,540,540s540-241.8,540-540S838.2,0,540,0z M540,1030     c-270.6,0-490-219.4-490-490S269.4,50,540,50s490,219.4,490,490S810.6,1030,540,1030z"/><path style="fill:none;" d="m170 765"/><path style="fill:none;stroke:#000000;stroke-width:2;stroke-miterlimit:10;" d="m607.5 0"/></svg>
