<svg xmlns="http://www.w3.org/2000/svg" enable-background="new 0 0 1920 1080" version="1.1" xml:space="preserve" viewBox="150.5 371.4 1571.54 340.6"><path style="fill:#007FFF;" d="m322.1 596.9-9.1 15.8h106.1s18.2 0.1 9.1-15.8-53-91.9-53-91.9l-9.1 15.8 40.3 69.8s3.7 6.3-3.6 6.3-80.7 0-80.7 0z"/><path style="fill:#007FFF;" d="m304.6 596.9-9.1 15.8h-65.7-7.3s-18.4 0-9.3-15.8 98.4-170.4 98.4-170.4 9.1-15.8 18.2 0l9.1 15.8 27.4 47.5-9.1 15.8-32.8-56.9s-3.6-6.4-7.3 0-26.1 45.1-26.1 45.1l-55.8 96.7s-3.6 6.3 3.6 6.3h7.3 58.5z"/><path style="fill:#007FFF;" d="m320.8 371.4c-94 0-170.3 76.2-170.3 170.3s76.2 170.3 170.3 170.3 170.2-76.2 170.2-170.3-76.2-170.3-170.2-170.3zm0 324.8c-85.3 0-154.5-69.2-154.5-154.5s69.2-154.5 154.5-154.5 154.5 69.2 154.5 154.5-69.2 154.5-154.5 154.5z"/><g transform="matrix(1.0182 0 0 1 545.43 615.15)"><path d="m117.36-37.2h-72.96l-13.44 37.2h-23.04l60.48-166.32h25.2l60.24 166.32h-23.04zm-6.24-17.76-30.24-84.48-30.24 84.48z"/><path d="m226.8 2.16q-15.12 0-27.12-5.04-12-5.28-18.96-14.4-6.96-9.36-7.68-21.36h22.56q0.96 9.84 9.12 16.08 8.4 6.24 21.84 6.24 12.48 0 19.68-5.52t7.2-13.92q0-8.64-7.68-12.72-7.68-4.32-23.76-8.4-14.64-3.84-24-7.68-9.12-4.08-15.84-11.76-6.48-7.92-6.48-20.64 0-10.08 6-18.48t17.04-13.2q11.04-5.04 25.2-5.04 21.84 0 35.28 11.04t14.4 30.24h-21.84q-0.72-10.32-8.4-16.56-7.44-6.24-20.16-6.24-11.76 0-18.72 5.04t-6.96 13.2q0 6.48 4.08 10.8 4.32 4.08 10.56 6.72 6.48 2.4 17.76 5.52 14.16 3.84 23.04 7.68 8.88 3.6 15.12 11.04 6.48 7.44 6.72 19.44 0 10.8-6 19.44t-17.04 13.68q-10.8 4.8-24.96 4.8z"/><path d="m316.8-152.88q-6.24 0-10.56-4.32t-4.32-10.56 4.32-10.56 10.56-4.32q6 0 10.08 4.32 4.32 4.32 4.32 10.56t-4.32 10.56q-4.08 4.32-10.08 4.32zm10.56 21.36v131.52h-21.84v-131.52z"/><path d="m522.72-133.92q15.36 0 27.36 6.48 12 6.24 18.96 18.96t6.96 30.96v77.52h-21.6v-74.4q0-19.68-9.84-30-9.6-10.56-26.16-10.56-17.04 0-27.12 11.04-10.08 10.8-10.08 31.44v72.48h-21.6v-74.4q0-19.68-9.84-30-9.6-10.56-26.16-10.56-17.04 0-27.12 11.04-10.08 10.8-10.08 31.44v72.48h-21.84v-131.52h21.84v18.96q6.48-10.32 17.28-15.84 11.04-5.52 24.24-5.52 16.56 0 29.28 7.44t18.96 21.84q5.52-13.92 18.24-21.6t28.32-7.68z"/><path d="m669.12 2.16q-18.48 0-33.6-8.4-14.88-8.4-23.52-23.76-8.4-15.6-8.4-36 0-20.16 8.64-35.52 8.88-15.6 24-23.76 15.12-8.4 33.84-8.4t33.84 8.4q15.12 8.16 23.76 23.52 8.88 15.36 8.88 35.76t-9.12 36q-8.88 15.36-24.24 23.76t-34.08 8.4zm0-19.2q11.76 0 22.08-5.52t16.56-16.56q6.48-11.04 6.48-26.88t-6.24-26.88-16.32-16.32q-10.08-5.52-21.84-5.52-12 0-22.08 5.52-9.84 5.28-15.84 16.32t-6 26.88q0 16.08 5.76 27.12 6 11.04 15.84 16.56 9.84 5.28 21.6 5.28z"/><path d="m814.32-20.16 40.8-111.36h23.28l-51.6 131.52h-25.44l-51.6-131.52h23.52z"/><path d="m1048.3-167.28v123.6q0 20.64-12.72 33.12-12.72 12.24-33.6 12.24-21.12 0-33.84-12.48-12.72-12.72-12.72-34.56h21.84q0.24 12.24 6.24 19.92 6.24 7.68 18.48 7.68 12.24 0 18.24-7.2 6-7.44 6-18.72v-123.6z"/><path d="m1113.1-110.16q5.76-11.28 16.32-17.52 10.8-6.24 26.16-6.24v22.56h-5.76q-36.72 0-36.72 39.84v71.52h-21.84v-131.52h21.84z"/></g></svg>