<svg xmlns="http://www.w3.org/2000/svg" viewBox="13.27 8.37 459.47 482.63"><defs/><path d="M215.59 9.08S298.77-1.5 365 58.75s85.49 155.34 103.14 232-16.69 143.2-81.57 162.79S292.73 417 212.1 397s-105-13.21-162.3-73.76S4 151.77 74.59 83.29s141-74.21 141-74.21z" fill="#007fff"/><path d="M215.59 9.08S298.77-1.5 365 58.75s85.49 155.34 103.14 232-16.69 143.2-81.57 162.79S292.73 417 212.1 397s-105-13.21-162.3-73.76S4 151.77 74.59 83.29s141-74.21 141-74.21z" fill="#fff" opacity=".75"/><g fill="none" stroke="#263238" stroke-miterlimit="10"><path d="M456.62 342.75L47.2 313.91M68.21 315.14v-46.07M106.91 317.6v-44.84M151.75 321.28v-46.06M201.51 324.97v-48.53M253.1 328.04v-51.6M304.7 330.5v-49.14M359.69 337.53v-53.1M422.02 339.71v-50.98M456.62 349.93L45.88 319.45M443.73 470.57L456 472M44 424l386.01 44.97"/></g><path fill="#263238" d="M459 278.69L58.62 261.52V43.32L459 26.15v252.54z"/><path fill="none" stroke="#007fff" stroke-miterlimit="10" d="M449.12 266.8L66.04 251.87V52.98l383.08-14.94V266.8z"/><path d="M190.47 75.53l-106 3a4.7 4.7 0 01-4.55-5c0-2.83 2-5.19 4.55-5.27l106-3.47a5 5 0 014.95 5.21 5.35 5.35 0 01-4.95 5.53z" fill="gray"/><path d="M126.81 72.15a4.78 4.78 0 00-4.7-5.06l-37.63 1.23c-2.51.08-4.55 2.44-4.55 5.27a4.7 4.7 0 004.55 5l37.63-1.09a5.14 5.14 0 004.7-5.35z" fill="#007fff"/><path d="M190.47 96.4l-106 2.21c-2.51.06-4.55-2.19-4.55-5a5 5 0 014.55-5.23l106-2.64a5 5 0 014.95 5.22 5.3 5.3 0 01-4.95 5.44z" fill="gray"/><path d="M153.32 91.91a4.89 4.89 0 00-4.79-5.15l-64 1.6a5 5 0 00-4.55 5.23c0 2.83 2 5.08 4.55 5l64.05-1.34a5.16 5.16 0 004.74-5.34z" fill="#007fff"/><path d="M190.47 117.26l-106 1.39a4.78 4.78 0 01-4.55-5.06 5 5 0 014.55-5.19l106-1.82a5.06 5.06 0 014.95 5.27 5.24 5.24 0 01-4.95 5.41z" fill="gray"/><path d="M172 112.2a5 5 0 00-4.86-5.22l-82.66 1.42a5 5 0 00-4.55 5.19 4.78 4.78 0 004.55 5.06l82.66-1.08a5.19 5.19 0 004.86-5.37zM190.47 138.13l-106 .56a4.82 4.82 0 01-4.55-5.09 4.91 4.91 0 014.55-5.16l106-1a5.1 5.1 0 014.95 5.3 5.2 5.2 0 01-4.95 5.39zM217.1 74.76l-14.52.42a5 5 0 01-5-5.21 5.39 5.39 0 015-5.52L217.1 64a5 5 0 015.05 5.24 5.42 5.42 0 01-5.05 5.52zM217.1 95.84l-14.52.3a5 5 0 01-5-5.25 5.34 5.34 0 015-5.48l14.52-.36a5.08 5.08 0 015.05 5.28 5.37 5.37 0 01-5.05 5.51zM217.1 116.91l-14.52.19a5.09 5.09 0 01-5-5.29 5.29 5.29 0 015-5.44l14.52-.25a5.14 5.14 0 015.05 5.32 5.31 5.31 0 01-5.05 5.47zM217.1 138l-14.52.07a5.14 5.14 0 01-5-5.33 5.24 5.24 0 015-5.4l14.52-.13a5.17 5.17 0 015.05 5.35 5.28 5.28 0 01-5.05 5.44z" fill="#007fff"/><path fill="none" stroke="#fff" stroke-miterlimit="10" d="M85.31 62.94l17.06-.59M85.31 83.96l17.06-.45M85.31 103.91l17.06-.32M85.31 124.93l17.06-.18M400.9 63.51l14.3-.44M392.59 75.83l22.61-.6M400.9 87.7l14.3-.32M406.81 99.69l8.39-.15M400.9 111.9l14.3-.2M397.08 124.03l18.12-.18M400.9 136.09l14.3-.08M393.97 148.2l21.23-.03M400.9 160.28l14.3.04M419 63l4.34-.13M419 75.13l4.34-.12M419 87.3l4.34-.1M419.07 99.47l4.22-.08M419 111.64l4.34-.06M419 123.82h4.25M419 136h4.34M418.92 148.16h4.37M419 160.33h4.34M427.53 62.69l7.43-.23M427.53 74.9l7.43-.2M427.53 87.11l7.43-.17M427.72 99.31l7.24-.13M427.53 111.52l7.43-.1M427.69 123.73l7.27-.07M427.53 135.94h7.43M427.47 148.15H435M427.53 160.36h7.43"/><path fill="none" stroke="#999" stroke-miterlimit="10" d="M237.09 150.58l145.42-.1M237.09 141.33l145.42-.6M237.09 132.07l145.42-1.09"/><path d="M383 169.71v-44s-3.41-4.33-17.48-3.53c-13.92.8-17.26 13.1-32 20.26S312 138.05 300 138.11s-17.85 13.34-26.46 18.37-16.18-.65-26.41.58a14.54 14.54 0 00-12.36 10.52l-.14 1.24z" fill="#007fff"/><path d="M383 169.71v-24.16c-4.81-.26-14.79.54-25.39 9.37s-29.51 4.17-35.07 2.14c-8.85-3.24-19-3.4-29.09 3s-18.29 5.78-27.64 5.73c-6.61 0-14.28 2-18.15 3.11zM271.77 238.26l-25.87-.81a4.68 4.68 0 01-4.38-4.77 4.36 4.36 0 014.38-4.51l25.87.71a4.75 4.75 0 014.48 4.82 4.44 4.44 0 01-4.48 4.56zM324 239.88l-26.86-.83a4.82 4.82 0 01-4.54-4.87 4.48 4.48 0 014.54-4.59l26.86.74a4.88 4.88 0 014.65 4.91 4.55 4.55 0 01-4.65 4.64zM377.1 241.54l-27.88-.87a4.94 4.94 0 01-4.71-5 4.6 4.6 0 014.71-4.68l27.88.77a5 5 0 014.82 5 4.68 4.68 0 01-4.82 4.78z" fill="gray"/><path fill="none" stroke="#999" stroke-miterlimit="10" d="M79.75 213.16l143.42 3.39M79.75 205.55l143.42 2.97M79.75 197.94l143.42 2.54M79.75 190.32l143.42 2.12M79.75 182.71l143.42 1.7M79.75 175.1l143.42 1.27M79.75 167.49l143.42.84M79.75 159.88l143.42.42"/><path fill="gray" d="M97.05 221.8l-13.74-.37v-30.18l13.74.21v30.34z"/><path fill="#007fff" d="M116.54 222.32l-13.95-.37v-38.93l13.95.17v39.13z"/><path fill="gray" d="M136.33 222.85l-14.16-.38v-45.9l14.16.14v46.14z"/><path fill="#007fff" d="M156.42 223.39l-14.38-.38v-65.48l14.38.03v65.83z"/><path fill="gray" d="M176.82 223.94l-14.6-.39v-46.61l14.6.14v46.86z"/><path fill="#007fff" d="M197.54 224.5l-14.83-.4v-32.32l14.83.22v32.5z"/><path fill="gray" d="M218.59 225.06l-15.07-.4v-19.78l15.07.29v19.89z"/><path fill="none" stroke="#fff" stroke-linecap="round" stroke-linejoin="round" d="M83.96 229.05l11.18.33M103.38 229.63l11.35.34M123.09 230.22l11.53.34M143.11 230.81l11.7.35M163.44 231.42l11.88.35M184.08 232.04l12.07.36M205.05 232.66l12.26.37"/><path fill="#007fff" d="M394.37 181.05v-7.18l19.51.15v7.22l-19.51-.19z"/><path fill="gray" d="M394.37 191.09v-7.17l25.02.27v7.24l-25.02-.34z"/><path fill="#007fff" d="M394.37 201.13v-7.17l29.33.42v7.25l-29.33-.5z"/><path fill="gray" d="M394.37 211.18V204l41.7.75v7.28l-41.7-.85z"/><path fill="#007fff" d="M394.37 221.22v-7.17l29.33.62v7.25l-29.33-.7z"/><path fill="gray" d="M394.37 231.26v-7.17l20.12.5v7.22l-20.12-.55z"/><path fill="#007fff" d="M394.37 241.31v-7.18l12.18.35v7.2l-12.18-.37z"/><path d="M279.24 199.15c0 12.2-9.42 21.85-20.95 21.56s-20.63-10.25-20.63-22.26 9.2-21.67 20.63-21.57 20.95 10.12 20.95 22.27z" fill="gray"/><path d="M259.28 176.94c-.33 0-.65-.06-1-.06-11.43-.1-20.63 9.56-20.63 21.57s9.2 22 20.63 22.26h1z" fill="#007fff"/><path d="M272.72 199c0 8.4-6.48 15.07-14.43 14.89S244 206.87 244 198.56s6.38-15 14.28-14.89 14.44 6.97 14.44 15.33z" fill="#263238"/><path d="M331 200c0 12.42-9.77 22.25-21.73 21.95s-21.41-10.45-21.41-22.68 9.54-22.07 21.41-22S331 187.6 331 200z" fill="#007fff"/><path d="M324.19 199.91a14.85 14.85 0 01-15 15.16c-8.21-.18-14.82-7.19-14.82-15.66a14.85 14.85 0 0114.82-15.16c8.27.09 15 7.1 15 15.66z" fill="#263238"/><path d="M384.63 200.93a22.11 22.11 0 01-22.57 22.37 23.06 23.06 0 01-22.22-23.12 22.13 22.13 0 0122.22-22.37 23 23 0 0122.57 23.12z" fill="gray"/><path d="M363.13 177.87c-.36 0-.71-.06-1.07-.06a22.13 22.13 0 00-22.22 22.37 23.06 23.06 0 0022.22 23.12h1.07z" fill="#007fff"/><path d="M377.61 200.81a15.27 15.27 0 01-15.55 15.45 15.92 15.92 0 01-15.38-16 15.28 15.28 0 0115.38-15.44 15.89 15.89 0 0115.55 15.99z" fill="#263238"/><path fill="none" stroke="#fff" stroke-miterlimit="10" d="M253.85 199.82l9.5.17M304.81 200.7l9.86.17M356.74 201.6l10.23.18"/><path fill="gray" d="M305.25 83.38l.07-.76-.22.22.15.54zM275.75 94.59l.51.08 1.17-.36-1.68-.54.23.55-.68.16.45.11z"/><path d="M289 103.89l-2.58-1-.46.27.07-.39-.83-.56-.95.4.31-.47-.71-.2-.23.32.44-.85-.54-1.19-.61-.53-1.36-.18-1-1h-.51l.09-.33-.52-.21v-.23l-.29-.09-.68.29-1.12-.29-.57-.53-.1.26-.48.33.12.58-.37-.13.15-.53-.05-.28.09-.08.09-.25-1 .55h-.17l-.8 1.21h-.07l-.22-.32-.49-.25-.5.22h-.56l-.57-.75.21-1.67-.39-.31h-1.4l-.14-.09.21-.88h.07l.41-1.34h-.85l-.78 1.21-1.08.19-.4-.21-.57-.92v-2.18l-.14-.06.14.06-.1-.51.09-.39 1.19-.93 1.16.26.16-.14.31.24-.15-.42.55-.26.14.11.46-.08.33.26h.24l.33-.13.88 2h.27l.15-.48-.49-2 1.59-1.79v-.26l.09-.15h.24l.09-.24-.24-.41v-.19l-.23-.34.14-.14v-.53h.12l.06.87.16-.12.07-.7h.25l.18-.51.71-.29h-.53l.56-.22.18-.17h.29l-.09-.31.27-.65.46-.45h.44l1-.77v.17l.32.13-.71.37v.45l.46-.11.33-.34.81-.27.15-.04.47-.21-.13-.16v-.28l-.57.58-.62-.11-.38-.34v-.42l-.16-.13v-.16l.35-.52-1.52.32-.77.77.88-1.16.37-.13.26-.36 2.2-.19 1.6-1v-.17l-.1-.11.12-.22-.19-.31-.37.07v-.33l-.89.35-.08-.16.91-.43-1.71-1.08V76l.28-.18-1.1-2-.32.42-.12.47-.12.15h-.21l-.35.25-.58-.51-.15-.7.12-.35-.8-.25-.73-.66-.35.14-1.07-.14-.15.3.23.27-.19.39.24.59-.35.86.52.47.08.88-.55.6-.49.22.28 1.27-.07.34.05.2h-.16l-.19.26-.29-.12-.62-.9v-.93l-.2-.25-2.9-1.14-.52.19v-.2l-.41-.84-.38-.1.22-1.43 1.19-1.27-1.06-.47 1.21.2.09-.35.51.08.5-.6-.88-.41v-.22l.7.37.52-.45-.2-.23.27-.14.23.18h.37l-.19-.28.06-.11.36.13h.3l.52-.44-.29-.72v-.17l.35-.15-.21-.41-1.21-.36v.38l.11.2-.06.18-.23.18-.17.41-.15-.25-.05.32.13.24-.24.21-.43-.59.15-.18v-.25l-.23-.27-.33-.08-.29.62-.11-.48.13-.33-.35-.15-.26.08v-.34l.2-.09-.52-.46v-.35l-.45-.35-.08-.17.25-.22.08-.4h.54l.51-.81-.94-.29-.73.15.1.24h-.23l.19 1.37-.21.24.11.23h-.29v1.08l.7.27-.12.53.17-.15.16.22-.58.42v.39l-.19.15-.18-.32v-.31l-.4-.12.26-.06.18-.16.4-.05-.19-.34h-.28l.29-.07-.6-.22-.75.4.57.42-.3.22v.26l-1.92-.1-.31-.17-.18-.31h-.57l-.51.28.16.16.78-.3-.57.36v.86l-.22-.1v-.33l-2.41-.16.39-.32-.13-.3-2.25-.59-1.18.24v-.26l-.11-.31-.47.58-.52-.78-.21.08-.38.5-1.43.74.08-.22 1.22-.78h-.3l-1.18.57-.26-.14-.47.41.14.23-5.82-1.14-.11-.2h-.59l-.17-.16-.44.12.13-.18-.27-.14-1.22.54.08.21-.76.1-.4.4-.14.43-.87.22-.09.26.94.94h.58l.11.34.37.08-1.14.24V71h-.43l-.19.24h-.3l-.46.32.5.22-.07.19.26.29h1l.61-.27-.1.28v.53l-.42.05-.18.33-.35-.08-.14.41-.34.3-.17.36.31.23v.38l.42.46.41-.09.17-.17.11.85h1.06l.14-.21h.37l-.11.83-1 1-.53.08-.25.44 3.27-2.39-.27-.15 1.21-1.33.21.09v.15l-.35.09-.14.37v.29l-.12.18.14.13.68-.45h.49v-.21l-.15-.23.11-.2.71.14-.15.14v.14l.48-.11.07.07 1.14.09.31.23.42-.17-.07.25 1 .72.2-.2.28.16v-.34h.13v.52l-.26-.06-.23.08.55.88v-.7l.05.28.2-.14V76l.2.27-.11.28-.19.11v.42l.14-.15.22-.06.3.26-.14-.19v-.22l.26.39-.17.21-.3-.16.05.7.12-.14.19.08.08-.23.17.07.16-.1v.28h.15l.15.2-.1.17.06.3h.3l.08.23.43.33.08.62.91.41.13.24.47.15.3.42.06.41-.11.41-.16-.59v-.17l-1-.87-.82-.15 1.1 1 .49 1.15.05 3.8 1.16 1.93.72.26 1.48 2.71h-.28l.81.62.1.5.77.91.17-.13-.07-.32-.3-.14-1-1.94v-.21l-.27-.13-.31-.9h.13l.53.2.13 1 2.58 3.24v.3l-.11.14.28.5 2.53 1.32h1.34l.37.33.39.37 1.17.35.12-.06h.1l.09.3.54.62v.16l.09.35.2-.05 1.4 1 .27-.09-.1-.22.18-.2.39-.15.42.81.06 1.51-.54.71v.05l-.24.15L273 103l.21.21h.17l-.16.25-.29.35.14.55-.11.11 1.86 3.56 2 1.5-1.45 11 .16.27.16-.73.13-.15.09.15-.13 1.71-.18.12v.26l-.22-.1.15-.27-.18-.29.11.32-.39.27v.19l-.22.25h.45v.2l-.11.25h.33v.16h-.44l-.24.22.13.18.18-.13h.14l-.36.42.16.29.26-.35-.1.59-.21.26v.38l.36-.06.07.14-.16.19H275.64l.22.09-.31.15-.1.24.26-.1h.54l-.64.27v.08l.72-.24-.45.37h-.37v.27l.53.18-.06-.14.72-.79-.1.43h.32l-.2.18v.28l-.15-.33-.07.25-.17-.07-.27.32.26.06.17.36.13-.32.25.37.12-.14.37.3v-.27l1.09-.2-1.1-.83v-.17l-.13-.22-.31-.16v-.06h.33l-.22-.68.07-.37 1.06-1.3.07-.4-.35-.1-.25-.61.58-.39.43-1.2.2.13.14-.31-.25.07-.19-.1-.07-.68.56.16.41-.24v-.67l.13-.16.9-.07.67-.39.32-.53-.65-1.13h.12l.6.2.8-.09 1.09-2v.51l.81-1.23.21-1.49 1.38-1 .91-.12 1-2.15.09-2 .07-.12.22.07 1.11-1.74-.07-1.17-.31-.23zM277.31 127z" fill="gray"/><path fill="gray" d="M275.36 93.73l-2.35-1.19-1.24.53.6-.33 1.68.73.17.32 1.14-.06zM273.91 94.54l.72.13-.72-.13zM277.91 94.5l.58-.02-.58.02zM269.35 102.11l.22.41-.22-.41zM293.99 66.83l-1.41-.03.16-.65 1.29.45.12-.54-.92-.91.52.06.34-.43-.85.01-.16-.26.14-.34.78.24.6-.18-.47-.49.79-.11.09-.28-.64-.44.62-.14-.17-.74-.63-.15-.26-.31 1.45-.12-.22-.42-.59-.13.49-.13-1-.13.22-.76 1.22-1-.24-.31-.59.23.48-.35.9-.18-.66-.15 2.21-1.04-1.22-.35-.72.41-.73.07-.31-.12-1.3 1.01.59-.86-.22-.58-1.59.79.74-.55-2.67.25 4.02-.98-5.63-.71-.6.37-2.67.12.35.36-.63.23.9.62-2.19-.6.43.55-.49.04-.65-.38-.03.51-.29.29-.19-.82-2.52.74.1.61-.67-.1-1.59 1.05.86.12-.29.75-2.44.9.21.3 2.08.44-1.8.32.63.17.01.32.42.25 1.81-.22 1.7.71 1.24 2.01-.18.51.17.54.53-.28.13.4.67.35-.14.17-.94-.05.95.47.31.41-.07.56-.45.04-.57.9.34.34-.27.37.49.57.06.69.83 1.43 2.17 1.32.26-.32.15-1.28.59-.8.01-.29.14-.19-.07-.3.05-.16.83-.72.17-.01.08.21.66-.18 1.22-1.31 3.49-1.49.13-.21z"/><path fill="gray" d="M283.32 67.6l-.28-.29-.69-.12-.05.35.39.25.63-.19zM269.1 63.81l.98.31.25-.13 2.87.03.31-.65-3.54-.19.11-.38-1.68-.52-.88.17 1.57.74.01.62zM273.44 73.21l.05-.45-.05.45zM265.55 67.92l.49-.04-1.17-.82-.24-2.04-.68.2.44.42-.48-.2-.37.01.23.97-.22.22-.26-.68-.65-.27.27.33-.41.05-.66-.39-.23.38-.26-.11.06-.47-1.51.71-.1.28.3.53.82-.15-.91.44 2.2.37-1.91.4 2.04.9 1.55-.57 1.81.16-.23-.35-.27-.01.35-.27zM272.08 72.86l.59-.47-.59.47zM281.97 78.98l-.17-.13-1.03 2.05 1.37-.05-.09.29.3-.15.66.15-.18-.57-.14-.09.02-.4-.59-.14-.16-.23-.27.02.03-.29.25-.46zM278.89 79.82l.97.35-.97-.35zM273.2 71.84l-1.6-1.24-.39.28-.39 1.1.44-.03.18.32.59-.39 1.17-.04zM265.08 63.91l-.32-.19.32.19zM275 69.36l.05-.54-.45-.11-.32.63.72.02zM266.58 66.74l.62-.21.46-1-.21-.04-.05.16-.43-.18.45-.44-.25-.37-1.25.56.38.34-.69-.05.97 1.23zM258.33 67.32l2.62-1.98-.43-.43-1.62-.36-1.09.23.16.37-.56 1.22.92.95zM269.89 61.68l-.34.32.34-.32zM259.69 63.72l.54-.42-.54.42zM254.87 78.25l.53.86-.17-.61-.36-.25zM268.73 61.58l-1.02.25 1.02-.25z"/><path fill="gray" d="M276.4 66.44l-.53.03-1.59-.95-.39.35-.21-.08-.58.23.02-.68-.25-.47-.68.02-.75.36.11.59-.18.38.37.29-.59-.25-.08-.51.19-.58.35-.37-1.38.44-.32 1.4.74.14-.08.18-.52.07 2.51.69.36-.19.79.1-.05-.25.08-.2 1.14.88-.35.35.55-.2.85.76v.7l.58-.07.54.29-.51.3-.89-.35-.09.68-1.29.34-.2.51 1.64-.12.41.4.2.51 1.93.73-.92-1.04 1.48.13-1.12-1.59.1-.45.5.18.51.56.73-.37.46-.53-2.42-1.59.48-.14-.4-.22.2-.19-.19-.33-.25.15.06-.32-.79-.37-.45.12-.13-.12.3-.33z"/><path fill="gray" d="M273.06 64.78l.21.49.53.18.84-.19-.89-.47-.69-.01zM262.89 61.66l-.21-.15-.88.35.46.34.63-.54zM264.71 60.71l.46.24-.55.12 2.02.36-.14-.44-.79-.54-1.23-.16.23.42zM261.61 61.8l-.46-.1.46.1zM264.82 62.2l-.53-.46.53.46zM260.81 63.1l.05.27-.3.34.36-.01-.62.25.93.06.27-.13.67.03-.51.34-.02.37 2.51-.61.13-.83-.39.18-.64-.78-.37.45.03.27.26.29-1.99-.75-.37.26zM258.54 63.49l.52-.26.24.31.73-.88.1.36.6-.27v-.3l.22-.22-.28-.17-.21.16-.46-.03-1.59 1.08.13.22zM262.13 61.35l1.01-.18-.76-.18-.66.34.41.02zM267.66 59.76l.34.42h1.02l-.62.36 1.32.65.5-.04.71-.81.59-.25-.68-.42-.16-.37-2.28-.96.04.18-.53.38.06.44-.31.42zM267.48 61.53l.62-.15.03-.3-1.1-.39.45.84zM266.83 59.81l-.47-.18.47.18zM268.39 63.51l-.88.43 1.05.25-.17-.68zM266.18 62.46l.11.46-.41-.11-.12.29-.21.03-.58-.59-.04.5.55.43.84-.05-.08.5.73.02.29-.34-.03-.4-.4-.6-.65-.14z"/><path fill="gray" d="M269.54 57.93l.2.05.14.15-.11.28.32.23.89.01.1.19 2.49-.46v.34l-1.15.33.44.52-1.7-.43.02.64 1.33.92-.94-.18-.9.49h.83l-.07.25.4.52-.46-.04-.61-.34-.06.65-.71.43 3.95-.04.16-.36-1.15-.12.01-.24.92-.06.06-.4.66-.07.7-.85-.94-.2.79-.26.44-.39.68.03 2.58-1.68-1.05-.03 1.9-.64.1-.4-.95-.34-.8.15.14-.25-6.78.79-.57.44-.54-.07-.28.26-.75.1.27.08zM243.8 78.34l.46-.28-.46.28zM247.85 76l-.31.41-.25.12.15.3h.18l.45-.39-.13-.23.25-.14-.07-.19-.27.12zM243.27 74.97l-.31.13.48.15.07-.27-.24-.01zM303.13 84.29l-.31.13.31-.13zM311.21 86.14l-.79-.07-.22.11.53.14.48-.18zM313.91 86.23l.2-.26-.01-.08-.51.19-.17.29.49-.14zM296.48 70.84l.56-.58-.45-.77-.24.03-.34-.18-.04.25-.56.07-.18-.06-.24.19-.14-.08-.17.13-.04.19-.24.13-.09-.33-.54-.39.05.23-.13-.01-.23.11-.18.27.77.08-.07.2-.59.25h.52l.23.28-.3.33.45-.03.65.27 1.54-.58zM298.57 78.37l1.05-.42v-1.01l.27-.2-.2-.45-.85.18.17.19-.29.17-.38.02.21.59-.1.34-.24.28.36.31zM299.64 74.4l-.23.37.23-.37z"/><path fill="gray" d="M299.56 74.95l.25.23-.13.3.19.22-.29.26.25-.11.15.24.2-.32.03.28-.13.41.52-.07.24.52-.03.37-.36.02-.11.07-.11.26.21.15-.34.28.14.17.58.1.03.1-.39.07-.46.65.27-.18.26.06.16-.19.54-.14.28.07.9-.35-.15-.08.03-.24.29-.4-.55-.22v-.22l-.86-1.39-.33-.05.41-.99-.67-.01-.12-.13.27-.35.06-.24-.16.17-.39.02-.47.74-.21-.08zM306.13 76.43l.26-.34.09-.44-.12.1-.12-.1-.24.13.14.36-.1.12.09.17zM308.61 74.48l-.24.54.24-.54zM310.04 73.79l-.23.03.23-.03zM309.74 74.33l.37-.29-.23-.07-.14.36zM308.44 58.3h1.31l-.75.31 1.27.25 1.37-.85-1.25-.17-.2.12-.2-.26-.07.4-.28-.17-.3-.01-.39-.24.02.18-.26-.07.01.23-.27-.21-.15.16.18.17-.04.16zM305.95 59.69l.25.19-.47-.54.22.35zM306.28 58.95l-.21.4.36.44.51.02.38-.51.03.25.31-.05.14.13-.99.47.32.14.72-.06-.99.36.36.31.35.03-.17.16.29.19.24-.09.84-1.6.44-.16.07.09.05.31.13.14-.06.39.34.07.2.2.76-.5-.55-.14-.06-.16-.28-.11-.2-.22-.07-.23-.92-.32-.14-.31-.29.15.09-.29-.37-.14-.19-.18-.14.39.22.61-.64-.7-.14.33-.1.08-.27-.24.3-.14-.2-.07-.56.05-.29.15V59l.38-.05zM353.08 81.31l-.31.15-.21.49v.32l.39-.14-.22-.3.87.09.77-.4.61-.73-.72.23-.81-.64-.24.13-.13.8zM348.87 86.27l-.16.29.21-.12.2.91.41-.71-.08-.26-.25-.21-.33.1zM351.28 84.67l-.23.42-1.22.21-.57.49v.25l1.33-.4.16.36.43-.03.13-.29.12-.06.74-.03.22-.25.35-.07.19-1.23.34-.46-.18-1.1-.47.16-.25 1.11-.57.71-.24-.13-.28.34z"/><path fill="gray" d="M350.01 86.44l.32-.15.25-.37-.37-.04-.35.12-.05.55.2-.11zM345.36 91.42l.46-1.29-.66.59.2.7zM341.54 92.98l.19-.5-.45-.02-.36.57.62-.05zM347.13 96.86l-.43.41-.32-.08-.43.29-.14.43.6-.32.3.71.39.21-.02-.53.4-.19-.09-.91-.26-.02zM345.02 93.98l.2.88 1.16.59.44 1.06.29-.36-.1-.5-.67-.68-.51-.09-.19-.38.25-.59-.08-.81-.54-.04-.07.97-.18-.05zM345.23 95.22l.35.43-.35-.43zM344.55 96.65l-.47.69.67-.7.1-.45-.3.46zM346.77 96.66l-.27.2.27-.2zM346.38 96.31l-.56-.48.02.56.2-.12.08.78.4-.67-.14-.07zM356.88 102.66l-.45.31-.79.05.6.29.77-.44.11-.37-.24.16zM357.37 102.61l-.12-.42-.11.03.23.39zM355.34 103.23l-3.74-1.87-.93.78-.39-1.02-.85-.11-.31.27.19.11.21.28.59.02-.03.13-.54.13.23.36 2 .69.21.47-.01.37-.35.34.86-.07.79.48.67-.6.77.18.82.8.78.14-.06-.25-.64-.47-.35-.89.08-.27zM330.83 97.06l-.15.93.19.61.56-.6-.6-.94zM319.41 106.21l-.13.13-.05.29-.4.37-.01.22-1.23.66-.33 3.1.24.77.64.17.37-.16 1.08-4.05.22-.05-.4-1.45zM320.98 96.07l.37-.09-.37.09zM354.85 118.94l-.63-.19.17.83.49.63.21-.16.08-.22.22.05.09-1.09-.63.15zM348.81 105.73l.48-.13-.48.13zM351.13 116.44l.45-.07-.45.07zM357.53 112.67l-.11-1-.81-.9-.13-.43-.15-.13-.21.02-.36-.89-.85-.55-.7-2.04-.29.01-.47-1.57-.24.3-.28 2.17-.32.49-1.76-1.14.06-.55.24-.2.12-.28-.08-.2-.14.17-.14-.22-.28.14-1.06-.47.14.27-.57.2-.52.81.02.35-.43.07-.64-.53-.21.14-.11.19-.29.02-.06.18-.18.14-.07.41-.27-.03.06.31-.12.22-.14-.31-.29.17-.02.48-.53.6-2.25.94-.2.3-.04-.25-.19.3-.05 1.13.21.55-.22-.21.11.29-.26-.22 1.01 2.64-.08.55-.21.35.1.27.27.26.71.07 4.91-1.7 1.1.42.02.25.33.35.09.46.99-.82-.39.92.34-.04.21-.12-.05.45.27-.02.51 1.1 1.13.46.47-.31.15.07.07.12.1-.08.37.35.52-.53.77-.16 1.37-4.56zM362.84 121.95l.14-.19-.14.19zM319.28 66.97l.68-.17-.33-.26-.35.43zM320.73 64.92l.06.3.14-.14.75.5.95-.03-.5-.48-.13-.88 1.03-1.61 3.79-2.1-4.49 1.46-.39.82-.31.19-.14.53-.58.4.12.28-.67.53.37.23zM335.03 56.29l-.49.09.49-.09zM353.91 62.68l-.48-.5-.61.34 1.09.16zM353.04 61.9l-.35.17.35-.17zM335.88 57.47l-.25.37 1.67.56.42-.78-.82-.43-1.02.28zM337.56 59.13l2.24-.66-.48-.34-.53.14.04-.22-.21-.26-.39.17-.13.34-.28.24-.26.59zM351.92 61.45l1.55-.15-.03-.48.68.44.26-.37-.09-.35-.8-.15-.53.17-.71-.36-.63.99.3.26zM353.78 75.96l-.24-.49-.23 4.47.24-.28.32.3-.32-.85.11-.67.44-.06.12-.08-.44-2.34zM342.26 62.03l-.22.2.66-.14-.44-.06zM355.85 61.38l.89-.22-1.54-.38-.26.29.91.31zM335.31 57.15l-.09.16-.26.15.33.24 1.44-.68.1-.35-.43-.61-.94.52-.16.29.01.28z"/><path d="M370.65 67.88l.42.09-.08-.12h.28l.24-.35-1.24-.63h-.49l.22.13-.05.27-.24-.11v-.42l-.14-.22-5.35-1.76-.12.27.18.33-.09.4-.88-.45.45-.24-.47-.2-.44.4h-2.06l-.07.39-.1-.4-.49-.18.07-.27-.61-.57-2.27.13-.1-.2-1.08-.36v-.13l.3-.17-1.19-.18-.22.41h-.4l.29-.21-.41-.13.2-.11h.29l-2-.29-.08.19-.67.41h.3l-.1.22.11.28h-.65l-.1.09v.17L351 64l-.43.17-.76-.23-.44.76-.23-.08-.89-.95h.42l-.24-.88-.25-.18h-.63l-.75-.38-.36.43v.31l-1.87.03.15-.2h-1.94v.22l-.06-.4-.19-.05-.38.08-.42-.23-.42.28.22.06-1.61.62.09-.29 2-1.17.18-.23.44-.21.17-.25-.16-.14.18-.08-.12-.38h-.24l-.08-.34-1.53-.09-.24.16-.46.07.26-.4-1-.08.45-.21v-.16l-.69-.18-.49.13-.65.73.07.17-.77.19.24.19-1.07.13.1-.23-.35.11h-.24l-.59.19.22.16-2.18.68-.05.1-.14.11.1.14h-.31l.36.25h-.28l.28.26v.18l-2.11.27-.11.71.49.28.21.39-1.72-.56-.23.21.35.19-.7.17.82.61-.06.12-.42-.23h-.62l.07-.68-.16-.5-.19.6-.43.27-.15.25.42.56-.2 1.11h.28l.42-.11.7.24.14.32-.17.3.42.31h-.41l-.16-.25.09-.3-.42-.42-.56.19.08.56-.91 1.12h-1l-.18-.17.61.11.83-.84.17-.62-.29-.35.08-1.24-.3-.45.28-1-1.15-.17-1.08 1.62.2.05-.18.81.43.17.15.33.22.12-.22.41-3.56-1.45.11.34.5.29.16.33-.11.23-.44.24V67l-.22-.18-.55.33h-.61l-.34.28h-.49l.26-.52-.5.18-.07.23-.16-.1-1.57.7-.08.44-.62.11-.28-.3v-.26l.58-.15-.22-.38-.91-.18.17.44-.14.46.25.5-.11.32h-.16l-.1-.11-.37-.07-.89.59.17.68-.81-.11-.41-.26-.22.23.11.24.35.12v.25l-.27.06-.61-.29-.28-.53v-.52l-1-.85 2.26.68 1.05-.56v-.48l-3.16-1.34.27-.1-.24-.11-.47.06h-.43l-.23-.2h.18l.49-.2-.19-.2-.46-.19-.37.26v-.23l-.15-.22-.44.56v-.38l-.57.55.06-.26.23-.33v-.15l-.2.19h-.25l-.07.16-.32.16-.13.4-.13-.26.27-.38-.42.12v.27l-.1.09h-.27l.2.2h-.17l-.19-.13-.12.09.08.26-.12-.08h-.2v-.24h-.25l-.1.12v.19l-.12.1-.37.06-.18.29h.22l.05.15v.1h-.19l-.15-.1-.2.12.08-.34-1 .91h.12l1.05-.38v.22l-.1.07-.14-.08-.78 1.13-.06.3-.28.06-.05.66-.47.14.2.24-.43.22-.39.57-.2-.17v.23l-.54.3.19.16h-.31l-.6.37h-.14l-.16.19.14.2-.11.74.19.06.25-.11.07.12-.19.18h-.14l-.12.12v.24h.39L304 74l.38.33.42.11.66-.58.25-.06.09-.3.88 2.46h.28l.24-.38h.3l.21-.19.12.06.17-.45h-.13l.05-.86.74-.94-.34-.42-.25-.07-.05-.46.65-1.23.89-.72v-.4l.13-.33.24-.22.57-.05.29.13.13.31-1.44 1.58v1.4l.95.36 1.44-.38.17-.25-.17.25.15-.06.23.26.31.07-2.12.52-.22.24.08.25.21.14.07.16v.4l-.3.16-.32-.41-.34.19-.2.72v.56l.06.06-.12.22h-.41v.1l-.2.12-.17-.25-1.44.6-.22-.12v-.24l-.73.38-.57-.36-.17-.3h.44l-.13-.25h-.16l.1-.26.23-.14-.17-.19v-.63l-.48.3v.18L305 75l-.18.3.35 1.53-.15.16h-.54v.08l-.45.07-.14.28h-.17l-.17.1-.45.72-.37.17-.82 1-.45-.17-.21.17.05.43h-.3l-.22-.12h-.35l-.22.2v.25l.79.25.49.84-.22 1.23-2.25-.16-.3.22v3h.75l.43.46.1-.01 1-.19.93-1v-.6l1-.85.15-.34v-.11l.3-.41.65.15 1.06-.65 2.47 2.28v.76l.39-.59-.16-.31.34-.19h.27l-2-2v-.41l.16-.24h.23l.12.29.28.13.32.56 1.2.79.07-.2-.07.2.09.85.24.34.2.35.57.21h-.38l.26.62.34.17-.03-.41h.25l-.16-.15.13-.09h.26l-.12-.33h-.3l.12-.22-.29-.45.18-.12h.29l.07-.31.22.08.27-.16.45.23.34-.24.48-.06-.27-.25-.21-.61.36-.44v-.22l.37-.56.48-.73.4-.08v.27l.59.08-.48.31.36.18v.31l1.12-.35-.37-.1-.29-.32 1.57-.63-.44.31.13.22-.5.52 1.61 1.21.13.42-.08.14-1.3.3-1.28-.45-1.89.48-.18.32-.75.09-.08.3.15.11v.81l.42.36.18.06.22.25.76-.26.49.31.37-.08.34-.25.28.07.27-.09-.33 1.61.19.09v.24-.24l-.19-.08-.34.99-3.19-.23-1-.44-.8.48.05.53-1.22-.24-.59-.51-1.06-.22-.57-.44.28-.29.08-.9-.05-.15-3.4.22-1.25.77-1.35-.32-.4.83-.54.31-.47.74v.62l-2.6 4 .28 1.11-.26 1.48.06.65v.43l3.09 3.26 1.83-.23.27.1 1.86-.81.54.14.53.76.9-.17.15.22.27.06.1.4-.07.36-.09.54-.06.08.14.21-.34.43 1.58 3-.06.43.23.85-.75 2.53 2.28 7.41.34.27 2.41-.55 2.11-2.4.19-.88-.14-.16 1-.8-.14-1.93 2.12-2.14-.67-3.56 4.5-7.42-.23-.14-2.46.49-.19-.23-.05.07.05-.07-.19-.08.21-.2-3.91-7.81.61 1 .22-.58 3.12 7 2.92-1.09.35-.42 1-.32.14-.32.4-.09.24-.38.23-.13.12-.56.6-.72v-.22l-.31-.43-.6-.24-.3-.94-.43.56-1.12.52h-.07l-.15-.26v-.64l-.24.4-.94-2v-.07l.67-.18.57 1 1.27.58.58-.2.28.53 3.48.22.24.5.71.53h.4l-.5.21.77.69.5-.65 1.72 6 .68-.65.56-2.64 2.07-1.92.11-.43 1.5-.72 1 2-.05.66.15.22h.36l.31-.42.19.16 1.49 5.69 1.06.76L339 99l-1.54-2 .25-1.5.31-.11.69.48.1.37h.23v.22h.29l.2.2-.1.36.18.16.52-.67.73-.33.28-.55-.08-1-1.2-2.06.72-.86.64-.07.18.53.1-.18 1.23-.85 1-.12 1.24-1.22v-.4l.26-.14.7-1.3-.5-.21.39-.22-.55-.48h.53l-.65-1.05-.32-.25.35-.61.84-.45-.21-.26-.36-.15-.49.37-.23-.33-.38-.13v-.52l1.52-.8-.31.89h.26l.68-.45h.18l.42.23-.22.45.07.25.18.1.29-.07h.08l.12.22-.11 1.33 1.07-.45.15-.18-.48-1.28-.33-.34.11-.37.64-.46.13-.5.51-.53.3-.2.43.26 2.39-2.81.68-2.79-.65-.64h-.32l-.23.31h-.21v-.41l-.23.3-.05-.42H351V75l3-2.65 2.53-.2.54.2-.19.27 1.41-.28-.15-.13v-.35l1-1.12.62-.08.24.11.27-.13-.18.39.21.16-.1.17 1.07-.57.08-.41.64-.27v.1l-2.65 2.9-.35.09-.47 1.47.42 2.53.58-.63.08-.43.25-.19.28-.07v-.35l.35-.39.45-.1-.07-.41.27-.51h.29l-.18-.27.07-.69h-.24l-.05-.43.6-.91h.33l.14.07.37-.41.08.36.35-.23.93-.1.28.25.15-.25L366.7 70h.74v-.33l-.81-1.06-.31-.07.37-.13.2.2h.42l.5-.3.11-.22-.07-.24v-.21l.14-.14h.2v.22l.13.28 1 .2.26.35.57.24h.44l-.17-.23h.18v-.62l.11-.05z" fill="gray"/><path fill="gray" d="M327.89 63.46l-.4-.17-.16.33.56-.16zM330.76 63.56l-.28.14.28-.14zM274.08 91.65l-.13.12.26.43-.13-.55zM279.82 97.86l.27-.05-.02-.23-.26.09.01.19zM340.7 102.11l-.19.1.19-.1zM346.3 104.38l.12-.13-1.47.21.6.11.75-.19zM344.11 104.27l-.34.05-.17.23.53.08.52-.18-.54-.18zM346.86 104.82l.09-.11.81-.44-.55.02-.64.36-.17.47.46-.3zM348.03 102.14l.98.25-.26-.42-.72.17zM345.33 105.05l-.68-.19.33.17.35.02zM347.28 102.17l.45.13-.45-.13zM344.6 101.92l.38 1.32.18-.41-.04-.75.24.16.19.42.33.04-.17-1.14.56-.46-.76.26-.45-.39 1.86-.77-.39.18-.93-.1-.45.22-.55 1.42zM348.09 100.21l-.25-.15.19.9.28-.64-.22-.11zM336.62 100.39l.23.32-.23-.32zM337.15 101.43l.17.22-.17-.22zM342.94 104.42l.44.01-.37-.25-.64-.1.37-.29-2.84-.3-.18.24.28.06.19.23 2.75.4zM340.91 100.64l.86 1.52.29.15.49-.07.47.24.53-.11.5-1.56.56-.36-.47-1.32.62-.46-.25-.23-.33-.1-.33-.31-.57.82-.19.1-.26-.04-.32.58-.54.19-.24.53-.58-.15-.24.58zM339.85 102.73l.06-.43.15-.1.01-.25-.3-.33-.05.19.15.19-.23-.07-3.65-3.25 3.34 4.66h.39l.13-.61zM307.18 84.94l-.44.01-.3.18.78.49.24-.66-.28-.02zM304.86 83.7l.28.91.25-.18.06-.66-.33-.14-.26.07z"/><path d="M265.33 78.9a4.3 4.3 0 01-4.05 4.36 4 4 0 01-4-4.15 4.29 4.29 0 014-4.36 4 4 0 014.05 4.15zM271.62 96.37a2 2 0 01-1.88 2 1.87 1.87 0 01-1.87-1.93 2 2 0 011.87-2 1.88 1.88 0 011.88 1.93zM317.31 95.07a7.19 7.19 0 01-6.91 7.27 6.84 6.84 0 01-6.87-7 7.19 7.19 0 016.87-7.27 6.85 6.85 0 016.91 7zM330.86 68.42a3.12 3.12 0 01-3 3.14 2.9 2.9 0 01-3-3 3.13 3.13 0 013-3.14 2.91 2.91 0 013 3zM338.1 86.13a3.55 3.55 0 01-3.41 3.58 3.36 3.36 0 01-3.4-3.42 3.55 3.55 0 013.4-3.57 3.35 3.35 0 013.41 3.41zM352.26 65.85a3.07 3.07 0 01-2.93 3.08 2.86 2.86 0 01-2.92-2.9 3.06 3.06 0 012.92-3.03 2.84 2.84 0 012.93 2.85z" fill="#007fff"/><g><ellipse cx="340.1" cy="470.73" rx="26.55" ry="8.24" fill="#007fff"/><ellipse cx="340.1" cy="470.73" rx="26.55" ry="8.24" fill="#fff" opacity=".5"/><path d="M318.72 427.07a34.22 34.22 0 00-4.81 17.93c0 15.27 9 27.66 20.07 27.66s20.07-12.39 20.07-27.66a34.31 34.31 0 00-4.8-17.95z" fill="#fff" stroke="#263238" stroke-linecap="round" stroke-linejoin="round"/><path d="M349.52 427.77c.14 2.47-6.67 4.5-15.21 4.53s-15.57-1.95-15.71-4.42 6.66-4.49 15.2-4.52 15.58 1.94 15.72 4.41z" fill="#fff" stroke="#263238" stroke-linecap="round" stroke-linejoin="round"/><path d="M348.29 429.59c-2.56-1.51-7.94-2.55-14.13-2.52s-11.66 1.13-14 2.71c2.56 1.51 7.95 2.54 14.13 2.52s11.71-1.14 14-2.71z" fill="#263238" stroke="#263238" stroke-linecap="round" stroke-linejoin="round"/><path d="M296.74 296s1.86 3.53.2 6.84-3.72 6.63-2.48 8.29 5 3.73 4.56 7.25-5.39 10.57-2.28 14.51 8.29 3.73 8.49 8.08-5 7.87-3.52 11.81 10 4.77 10 7.46-3.32 5.59-.62 8.5 15.72 10.46 17.59 7.36 5.61-11.72 3.15-23.92c-.42-2.05-3.34-2.51-3.75-5.41s.83-8.08-1.25-11-8.7-3.94-9.11-6.22 2.48-7.87-.42-11.4-9.74-5.18-9.74-7.45 2.08-5.19-.83-8.29-9.99-6.41-9.99-6.41z" fill="#007fff"/><path d="M306.66 320.43c4.32 13 11.87 30.67 14.94 39.2 3.73 10.36 7 17.86 8.63 28.22.77 4.82 1.38 22.39 1.81 39.82M297.77 297.26s3.53 2.9 6.63 15.54l.69 2.57" fill="none" stroke="#263238" stroke-linecap="round" stroke-linejoin="round"/><path d="M361.51 319.62a6.55 6.55 0 00-.17 5.47c1.33 2.66 3 5.31 2 6.64s-4 3-3.64 5.8 4.31 8.46 1.82 11.61-6.63 3-6.8 6.47 4 6.3 2.82 9.45-8 3.81-8 6 2.65 4.48.5 6.8-12.59 8.38-14.08 5.89-4.49-9.37-2.52-19.14c.33-1.64 2.67-2 3-4.33s-.66-6.47 1-8.79 7-3.15 7.29-5-2-6.31.33-9.12 7.8-4.15 7.8-6-1.66-4.15.66-6.64 7.99-5.11 7.99-5.11z" fill="#007fff"/><path d="M353.57 339.16c-3.45 10.43-9.5 24.55-12 31.37-3 8.29-5.58 14.3-6.91 22.59-.66 4.14-1.17 20.1-1.52 35M360.68 320.62s-2.82 2.32-5.3 12.43c-.17.66-.35 1.34-.56 2.07" fill="none" stroke="#263238" stroke-linecap="round" stroke-linejoin="round"/><path d="M304.49 366.58a5.46 5.46 0 01.13 4.57c-1.1 2.22-2.49 4.43-1.66 5.54s3.33 2.49 3.05 4.85-3.6 7.07-1.52 9.7 5.54 2.49 5.68 5.4-3.33 5.27-2.36 7.9 6.65 3.19 6.65 5-2.22 3.74-.41 5.68 10.51 7 11.76 4.92 3.75-7.83 2.1-16c-.27-1.37-2.23-1.68-2.5-3.62s.55-5.4-.83-7.34-5.82-2.63-6.1-4.16 1.66-5.26-.28-7.62-6.51-3.46-6.51-5 1.39-3.46-.55-5.54-6.65-4.28-6.65-4.28z" fill="#007fff"/><path d="M311.12 382.9c2.89 8.71 7.94 20.51 10 26.21 2.5 6.93 4.66 11.94 5.77 18.87M305.18 367.41s2.35 1.94 4.43 10.39l.46 1.72" fill="none" stroke="#263238" stroke-linecap="round" stroke-linejoin="round"/><path d="M375.85 363.13a5.44 5.44 0 00-1.18 4.41c.57 2.42 1.41 4.89.35 5.78s-3.81 1.67-4.08 4 1.89 7.71-.73 9.79-6 1.16-6.77 4 2 5.89.49 8.23-7.21 1.58-7.62 3.33 1.3 4.15-.89 5.63-11.84 4.41-12.58 2.1-1.86-8.48 1.61-16.05c.59-1.27 2.55-1.12 3.27-2.95s.7-5.38 2.49-7 6.27-1.23 6.88-2.65-.41-5.5 2-7.35 7.13-1.88 7.48-3.37-.56-3.69 1.81-5.27 7.47-2.63 7.47-2.63z" fill="#007fff"/><path d="M365.66 377.5c-4.8 7.82-12.42 18.15-15.73 23.23-4 6.17-8.82 10.12-9.93 17-.34 2.12-.63 6-.88 10.38M375 363.78s-2.74 1.35-6.7 9.1c-.25.5-.53 1-.84 1.57" fill="none" stroke="#263238" stroke-linecap="round" stroke-linejoin="round"/></g><g><ellipse cx="165.71" cy="478.73" rx="41.29" ry="12.27" fill="#007fff"/><ellipse cx="165.71" cy="478.73" rx="41.29" ry="12.27" fill="#fff" opacity=".5"/><path d="M121.91 331.62s1.71 15.12 2.44 22.93 2.68 30 2.44 32.69-2.68 30.57-2.68 41.3 1.46 25.86 1.46 25.86-2.44 4.14-1.95 6.34a33.45 33.45 0 011 5.61 13.31 13.31 0 00.49 2.93s3.66 2.44 5.86 2.68 6.58-1.22 6.58-1.95 1.95-8.05 1.95-10.74 0-1.7.74-5.36 8.53-54.23 9.51-58.87 2.44-39.51 2.44-39.51l1.71 3.17s4.14 37.32 3.9 41.47-1.71 20-1 27.32 2.2 25.37 2.2 27.32-.49 6.34-.49 8.05-1.46 4.39-.73 5.61a21.31 21.31 0 011.46 3.66s8.79 1.46 11.22 1.46 4.4-2.19 4.4-2.19v-4.15c0-2.2.48-4.15.48-6.34s.25-6.83.25-10.25a88.79 88.79 0 011-9.76c.25-2.19 3.66-27.8 4.15-37.32s2.68-31 2.68-34.39-.24-35.37-.24-35.37l-.49-5.86s-25.61 3.42-37.81 1.71-22.2-2.2-22.2-2.2z" fill="#263238" stroke="#263238" stroke-linecap="round" stroke-linejoin="round"/><path d="M138.48 466.13a5.13 5.13 0 01-2 1.08c-1.34.4-2.15.67-3.22-.81s-3.23-3.22-5-2.42-3.76 2-4.16 3-.14 10.75-.14 12.64 3.63 2.68 7.26 2.82a11.52 11.52 0 006.45-1.88s3.09.26 4.17-1.08.54-4.44-.14-5.51-1.2-2-2.15-3.9a11.48 11.48 0 01-1.07-3.94z" fill="#fff" stroke="#263238" stroke-linecap="round" stroke-linejoin="round"/><path d="M141.84 479.44a3.29 3.29 0 00.59-1.75c-1.77.81-3.86.3-4.62.41-.94.13-3.09 1.61-7.93 1.34a16.23 16.23 0 01-5.94-1.35v1.49c0 1.88 3.63 2.68 7.26 2.82a11.52 11.52 0 006.45-1.88s3.11.26 4.19-1.08z" fill="#007fff" stroke="#263238" stroke-linecap="round" stroke-linejoin="round"/><path fill="none" stroke="#263238" stroke-linecap="round" stroke-linejoin="round" d="M137.13 480.52l.54-6.46"/><path d="M134.35 467.4a2.76 2.76 0 01-1.11-1c-1.08-1.48-3.23-3.22-5-2.42a13 13 0 00-3.83 2.48c.58 1.66 2 4.59 4.77 4.78 2.3.16 4.06-1.83 5.17-3.84z" fill="#007fff" stroke="#263238" stroke-linecap="round" stroke-linejoin="round"/><path d="M175 469.2s-2 .54-3.09-.13-2.69-4.7-6.32-4.3-5.24 3.76-6 4.17-.94.53-1.21.94-.4 11.29-.27 12.37 7.8 2.14 12.51 1.61 6.31-2.56 6.72-2.83a3.83 3.83 0 002.42-3.22c.27-2.42-.54-5.11-1.89-6.05a20 20 0 01-2.41-2z" fill="#fff" stroke="#263238" stroke-linecap="round" stroke-linejoin="round"/><path d="M169.8 480.76a32.55 32.55 0 01-11.75-1.8v3.29c.14 1.07 7.8 2.14 12.51 1.61s6.31-2.56 6.72-2.83a3.83 3.83 0 002.42-3.22 10.06 10.06 0 000-1.82c-.2.41-.43.85-.69 1.28-.74 1.34-2.76 3.36-9.21 3.49z" fill="#007fff" stroke="#263238" stroke-linecap="round" stroke-linejoin="round"/><path fill="none" stroke="#263238" stroke-linecap="round" stroke-linejoin="round" d="M175.08 476.17l-.78 6.66"/><path d="M166 472.7c2.41.28 5-1.63 6.44-3.41a1.91 1.91 0 01-.53-.22c-1.08-.67-2.69-4.7-6.32-4.3s-5.24 3.76-6 4.17c-.01 0 2.95 3.36 6.41 3.76z" fill="#007fff" stroke="#263238" stroke-linecap="round" stroke-linejoin="round"/><path fill="none" stroke="#636363" stroke-linecap="round" stroke-linejoin="round" d="M152.16 355.53l-5.86-2.93"/><path d="M164.54 217.89s1.47-2.44 2 .73-.74 6.58-2.44 7.8-2.44 0-2.44-1.22 2.88-7.31 2.88-7.31zM136 219.11a2 2 0 00-2.68 2.19c0 2.93 3.9 7.08 5.61 6.1s-2.93-8.29-2.93-8.29z" fill="#fff" stroke="#263238" stroke-linecap="round" stroke-linejoin="round"/><path d="M150.15 190.56s-3.81 6.34-7.8 8.05c-5.13 2.2-9.27 8.79-9 14.15s8.05 22.93 9.27 23.42 16.59-.73 17.08-1.46 2.68-8.05 4.63-15.13 1.95-10.73 1.95-10.73a22.46 22.46 0 001-7.07 12.86 12.86 0 00-3.17-7.81l-2.93 3.66 1-8.29a9.41 9.41 0 00-5.85 1.21 21.55 21.55 0 00-4.63 4.15z" fill="#263238" stroke="#263238" stroke-linecap="round" stroke-linejoin="round"/><path d="M235.77 197.16c-.36-1.09-1.45-1.09-2.36-3.45s-3.45-1.81-4.18-2.18-.72-.72-.36-1.81 1.27-4.72-.36-4.72-2.91 3.81-3.27 4.72a48.72 48.72 0 01-3.27 4.72 12.77 12.77 0 01-2.36.36c-.9 0-2 1.82-2.17 2.72-.12.57.76 2.42 1.44 3.72a28.84 28.84 0 001.1 3.18s.9 1.27 3.63.91 7.8 3.27 8.53 2.72 2.36-3.81 3.08-5.62a9.34 9.34 0 00.55-5.27zM118.36 348.87s3.3 5 3.48 6.94.17 5.56.34 6.77-.52 2.09-1.38 2.09a1.83 1.83 0 01-1.39-.87 20.29 20.29 0 00.52 2.95c.34 1.22 2.25 2.26 2.08 3.47s-2.08 1.74-4.69 1.74a7.89 7.89 0 01-7.29-5c-1.56-3.64-3.12-14.06-3.12-16s9.72-3.48 11.45-2.09z" fill="#fff" stroke="#263238" stroke-linecap="round" stroke-linejoin="round"/><path d="M114.72 355.29s.69 1.56-.7 4a16.08 16.08 0 00-2.08 4.69 16.72 16.72 0 001.56 3.47c.7 1.39 3 1.22 3.13 2.44a2.68 2.68 0 01-.35 1.9M116.91 362.72a18.07 18.07 0 00.93 4c.7 1.74 4.34 2.78 3 4.69" fill="none" stroke="#263238" stroke-linecap="round" stroke-linejoin="round"/><path d="M114.72 363.45a15.36 15.36 0 00.87 3.3c.52 1 4 2.08 3.3 4.86M119.41 363.8s-.35-2.78-.52-3.82a23.28 23.28 0 01-.18-3" fill="none" stroke="#263238" stroke-linecap="round" stroke-linejoin="round"/><path d="M176.36 242.33a36.35 36.35 0 00-15.61-7.07c-9.76-1.95-22.69 1.22-27.81 4.63a13.42 13.42 0 00-5.61 9.27zM216.61 212.57a5.54 5.54 0 010-2.92c.49-1 .73-3.91 1.46-4.64s6.1-3.66 10-1.95 5.86 9 6.59 10.73-1.46 5.61-2.44 6.1-1.95-2.93-2.93-3.9-9.29-4.88-12.68-3.42z" fill="#fff" stroke="#263238" stroke-linecap="round" stroke-linejoin="round"/><path d="M152.21 241.85c-1 .24-19.52 2.68-27.81 5.12s-15.12 5.61-15.37 8.78-7 62.26-7.26 65.68 2.2 23.17 3.42 23.9 6.83 1.22 8.78.49a8.37 8.37 0 003.17-2.19l.73-16.35s.49 5.61 1.46 5.86a109.49 109.49 0 0037.33 3.17c21-1.71 29.76-4.88 31.46-6.1s1.47-4.88 1.47-4.88.24-2.68.24-5.37-7.83-56.65-7.83-56.65 32.2-8.78 34.64-11.71 14.15-34.88 14.15-37.32-5.37-6.1-9.27-6.34-13.42 19-15.61 20.49-23.18 9.76-31 11.22-22.7 2.2-22.7 2.2z" fill="#007fff" stroke="#263238" stroke-linecap="round" stroke-linejoin="round"/><path d="M144.48 258.38s3.3 13 13 18.31M158.76 282.45q1.1.57 2.25 1.11M144.48 271.86a57.46 57.46 0 0010.73 8.56" fill="none" stroke="#263238" stroke-linecap="round" stroke-linejoin="round"/><path d="M183.23 273.2l-1.23-9.89-12 4.44 4.65 1.91c-2.27 2-5.24 4.82-3.4 4.49a31.73 31.73 0 006.94-3zM115.67 320.21c0-4.39 2.14-49.09 2.14-49.09l-.73-3.17-5.41-8.62 2.88 16.67c-2.29-.71-6.9-1.93-5.16.4a33.45 33.45 0 005.46 5.27l-1.64 33.06a14.14 14.14 0 001.94 7.88l1.68 2.86a12.51 12.51 0 01-1.16-5.26zM116.83 325.51a9.25 9.25 0 001 1.77z" fill="#263238" stroke="#263238" stroke-linecap="round" stroke-linejoin="round"/><path d="M188.61 324.11c-37.32 16.83-70.74 3.17-70.74 3.17s.49 5.61 1.46 5.86a109.49 109.49 0 0037.33 3.17c21-1.71 29.76-4.88 31.46-6.1s1.47-4.88 1.47-4.88 0-.56.1-1.43zM102.5 342.89s5.61 2.44 10.25 1 5.85-2.93 6.58-2.68.74 6.09 0 7.8-2.44 2.93-7.56 3.42-7.8-2-8.29-3.42a48.78 48.78 0 01-.98-6.12z" fill="#fff" stroke="#263238" stroke-linecap="round" stroke-linejoin="round"/></g><g><ellipse cx="82.32" cy="465.55" rx="36.29" ry="11.26" fill="#007fff"/><ellipse cx="82.32" cy="465.55" rx="36.29" ry="11.26" fill="#fff" opacity=".5"/><path d="M88.05 209.94s3 3.56 2.85 5a7.87 7.87 0 001.1 4.62c.71.89 2.67 1.6 2.67 3.2a5.74 5.74 0 01-1.07 3s.72 7.13 0 8.91-3.56 1.78-5.16 1.78-2.49-.18-3-.18-3.74-2.85-6.23-9.08.36-15.5 2.49-16.74 6.35-.51 6.35-.51z" fill="#fff" stroke="#263238" stroke-linecap="round" stroke-linejoin="round"/><path fill="none" stroke="#263238" stroke-linecap="round" stroke-linejoin="round" d="M86.81 220.81l7.3-4.1M90.9 216s3.92-1.07 2.5 4.63"/><path d="M80.25 241.89l-1.11 13.25-14.07-3.32v-10.49s9.93-2.21 15.18.56z" fill="#fff" stroke="#263238" stroke-linecap="round" stroke-linejoin="round"/><path d="M78.8 204a22 22 0 01-8 .55c-4.12-.55-13.18.55-15.65 6.6s.55 11.53.27 13.18-4.67 4.12-4.67 6.6 1.92 4.67 1.1 6.59-2.2 3.57-1.1 5.49 5.5-1.37 6 .55 4.67 4.4 6.6 4.4 4.12-4.12 5.22-2.48 3.29 3.3 5.49 3 3.29-5.35 8-3.3 6.21-2.24 6-6c-.16-3.58-4.39-8.52-3.57-11.27s2.47-4.67 1.92-7.69-3-4.12-1.65-6.32 3.3-2.19 3.85-4.94-.55-6.32-4.67-6.87S78.8 204 78.8 204zM54 344.3s3.87 22.08 1.94 43.34c-.78 8.53-5 10.77-6.08 22.08s2.76 34.23.83 46.38c-.26 1.66-2.21 5.8 0 8s9.94.83 12.15.83 7.45-.83 8-2.21-3.31-2.76-5.79-7.45a38.49 38.49 0 01-4.42-17.39c0-6.35 3.86-24.29 6.9-38.92s4.69-22.64 4.69-30.92v-26c0-1.38-7.45-4.69-13.25-3.59S54 344.3 54 344.3z" fill="#fff" stroke="#263238" stroke-linecap="round" stroke-linejoin="round"/><path d="M65.07 455.27c-.43-.8-.83-1.66-1.21-2.55-.72 1.52-1 3.34-2.38 3.66-2.49.55-10.77-.28-10.77-.28-.27 1.66-2.21 5.8 0 8s9.94.83 12.15.83 7.45-.83 8-2.21-3.31-2.72-5.79-7.45z" fill="#263238" stroke="#263238" stroke-linecap="round" stroke-linejoin="round"/><path d="M61.26 444.16a34.71 34.71 0 01-.61-6.28c0-6.35 3.86-24.29 6.9-38.92s4.69-22.64 4.69-30.92v-26c0-1.38-7.45-4.69-13.25-3.59s-5 5.8-5 5.8 3.87 22.08 1.94 43.34c-.78 8.53-5 10.77-6.08 22.08-.8 8.22 1 22.55 1.33 34.44a21 21 0 0010.08.05z" fill="#007fff" stroke="#263238" stroke-linecap="round" stroke-linejoin="round"/><path d="M50.44 439a44.66 44.66 0 006.34.83 19.33 19.33 0 005.25-1.1l.83 7.18a35.44 35.44 0 01-7.73 1.38 10.24 10.24 0 01-4.14-.56s-.55-5.54-.55-7.73z" fill="#fff" stroke="#263238" stroke-linecap="round" stroke-linejoin="round"/><path d="M51 323.87s-1.66 11 0 16.56 6.07 13.26 7.18 15.46 2.48 9.11 2.48 10.49 1.1 17.67-.55 25.95-3.59 13-3.59 21 3.86 37.89 3.86 43.13-1.93 11.87-.55 13.25 25.12-1.43 27.33-2.26a2.94 2.94 0 001.37-4.45c-.83-1.1-10.77-4.36-12.42-5.74s-2.76-5.8-3-7.73.55-31.54 1.66-38.16 5.52-19.6 8-26.78 6.9-32.57 6.9-41.68a159.86 159.86 0 00-.82-16.29s-25.72 1.94-37.85-2.75z" fill="#fff" stroke="#263238" stroke-linecap="round" stroke-linejoin="round"/><path d="M87.15 467.43a2.94 2.94 0 001.38-4.43c-.83-1.1-10.77-4.36-12.42-5.74a3.77 3.77 0 01-.68-.78l-.7 4.37a10 10 0 01-6.08 2.21c-2.76 0-6.82-1.8-8.55-2.63-.47 4.18-1.45 8.36-.28 9.25 5.61 4.32 25.12-1.42 27.33-2.25z" fill="#263238" stroke="#263238" stroke-linecap="round" stroke-linejoin="round"/><path d="M73 448.51c-.08-5.28.7-31.08 1.71-37.13 1.1-6.63 5.52-19.6 8-26.78s6.9-32.57 6.9-41.68a159.86 159.86 0 00-.82-16.29s-25.66 1.93-37.79-2.76c0 0-1.66 11 0 16.56s6.07 13.26 7.18 15.46 2.48 9.11 2.48 10.49 1.1 17.67-.55 25.95-3.59 13-3.59 21c0 5.67 1.94 24.12 3.07 34.14a42.31 42.31 0 009.62 1.53 16 16 0 003.79-.49z" fill="#007fff" stroke="#263238" stroke-linecap="round" stroke-linejoin="round"/><path d="M59.55 450.92a15.58 15.58 0 005.79 1.08c3.31 0 8.28.82 8-.83a48.87 48.87 0 01.27-7.18s-6.07.83-9.66.28-5.79-.83-5.79-.83.56 5.83 1.39 7.48z" fill="#fff" stroke="#263238" stroke-linecap="round" stroke-linejoin="round"/><path d="M82.18 258.17a21.23 21.23 0 00-11.32-7.45c-7.45-1.93-14.63 9.11-16.56 15.18s-2.21 22.36-5 30.64-4.69 24.85-3.59 26.78 24.85 8 33.13 8 17.16-6.62 17.42-9.93-1.38-25.39-2.76-37.27-11.32-25.95-11.32-25.95z" fill="#263238" stroke="#263238" stroke-linecap="round" stroke-linejoin="round"/><path d="M78.5 350s-.09 3.83 0 6.08a18.86 18.86 0 01-.84 6.08c-.47 1.49-1.59 2.52-1.68 1.49s.37-2.9.37-3.74-.28-4.67-.28-4.67a41.87 41.87 0 01-.84 4.11c-.56 2.15-2.15 4.39-2.9 4.58s-1.22-.47-.84-1.49 1.31-4 1.4-4.68S73 355 73 355a53.58 53.58 0 01-2.52 6.26c-.75 1.13-.84 1.69-1.59 1.78s-.65-1.5-.19-2.71a37.85 37.85 0 001.22-5.52c0-.37-.84 1.68-1.87 2.81s-1.78 2.05-2.25 1.87.19-2 .57-2.81a12.58 12.58 0 00.93-3.08v-2.43s-.84-1.88 3.09-2.53 7.27-1.4 8.11 1.36z" fill="#fff" stroke="#263238" stroke-linecap="round" stroke-linejoin="round"/><path d="M64.8 347.34a3.4 3.4 0 001.2 3.86c2.06 1.38 9.41 2.49 11.76.28a6.66 6.66 0 002.35-4.42z" fill="#fff" stroke="#263238" stroke-linecap="round" stroke-linejoin="round"/><path d="M67 261.48s-6.07 9.94-6.07 16.29-3.32 50.79-3.59 56.32.27 9.93 3.59 12.69 16.83 2.76 20.42 1.38 6.9-7.73 6.9-12.14-4.14-37-5-43.34-1.11-23.19-3.59-27.05-3.32-4.15-3.32-4.15" fill="#263238" stroke="#263238" stroke-linecap="round" stroke-linejoin="round"/><path d="M57.93 324.09s1.69-38.47 3-46.32a56.48 56.48 0 014.53-14.3M78 263.83s4.77 9.17 5 19 3.59 41.25 3.59 41.25M81.91 273.35l.82-5.52" fill="none" stroke="#636363" stroke-linecap="round" stroke-linejoin="round"/></g></svg>