<svg xmlns="http://www.w3.org/2000/svg" viewBox="56.25 74.06 386.03 354.42"><defs/><defs><clipPath id="a"><path d="M391 183.89c-4.62.54-16.59 8.7-17.41 9.52s-4.08 2.72-5.44 3.81c0 0-28 17.41-30.47 19s-7.34 4.9-7.07 6-14.42 25-14.42 25-4.35 5.72-.27 10.88 7.89 1.64 9.79.55 16.87-15.24 16.87-15.24l13.8 33s19.11-12.81 39.52-12l-13.61-53.32s18.78-14.14 19.32-19-5.96-8.75-10.61-8.2z" fill="#fff" stroke="#263238" stroke-linecap="round" stroke-linejoin="round"/></clipPath></defs><path d="M415.83 230.1a201.81 201.81 0 00-33.63-95.78c-30.74-45.45-80.91-70-135.49-56.62C195.1 90.36 182 146.24 139 171c-33 19-83 50-75 105 2.61 17.93 14.48 31 30.76 38.37 22.26 10.05 53.39 6 73.24 20.63 23 17 42 41 92 59 39.55 14.24 84.15-2.8 114-29.75 36.82-33.17 46-86.66 41.83-134.15z" fill="#007fff"/><path d="M415.83 230.1a201.81 201.81 0 00-33.63-95.78c-30.74-45.45-80.91-70-135.49-56.62C195.1 90.36 182 146.24 139 171c-33 19-83 50-75 105 2.61 17.93 14.48 31 30.76 38.37 22.26 10.05 53.39 6 73.24 20.63 23 17 42 41 92 59 39.55 14.24 84.15-2.8 114-29.75 36.82-33.17 46-86.66 41.83-134.15z" fill="#fff" opacity=".7"/><path d="M430.44 410.52l-6.8-6.72c5.66-8.2 3.22-14.24-1.64-19.8-2.93-3.35-10.59-2.84-20-1.63L350 331l-8 3s21.64 26.35 41.91 50.58c-8.42.75-16.89.76-23.91-1.58-21-7-38-22-38-22-24 2 12 41 26 52 28 22 42.88 18 62.76 3.18 3.57 4.08 6.15 6.89 7.24 7.82l.21.18c8.96 7.44 20.51-5.47 12.23-13.66z" fill="#007fff"/><path d="M430.44 410.52l-6.8-6.72c5.66-8.2 3.22-14.24-1.64-19.8-2.93-3.35-10.59-2.84-20-1.63L350 331l-8 3s21.64 26.35 41.91 50.58c-8.42.75-16.89.76-23.91-1.58-21-7-38-22-38-22-24 2 11.24 42.05 26 52 33 22.22 42.88 18 62.76 3.18 3.57 4.08 6.15 6.89 7.24 7.82l.21.18c8.96 7.44 20.51-5.47 12.23-13.66z" fill="#fff" opacity=".5"/><path d="M112.71 229.31s26.3 30.4 26.44 68.06-25.92 68.31-25.92 68.31-26.3-30.4-26.44-68.05 25.92-68.32 25.92-68.32z" fill="#007fff"/><path d="M170.5 315.45s.16 24.75-13.13 40.48-35 16.49-35 16.49-.17-24.75 13.13-40.48 35-16.49 35-16.49zM56.27 313.16s-1.1 24.72 11.59 41.08 34.36 18.18 34.36 18.18 1.09-24.72-11.6-41.08-34.35-18.18-34.35-18.18z" fill="#007fff"/><g opacity=".5" fill="#fff"><path d="M112.71 229.31s26.3 30.4 26.44 68.06-25.92 68.31-25.92 68.31-26.3-30.4-26.44-68.05 25.92-68.32 25.92-68.32z"/><path d="M170.5 315.45s.16 24.75-13.13 40.48-35 16.49-35 16.49-.17-24.75 13.13-40.48 35-16.49 35-16.49zM56.27 313.16s-1.1 24.72 11.59 41.08 34.36 18.18 34.36 18.18 1.09-24.72-11.6-41.08-34.35-18.18-34.35-18.18z"/></g><path d="M96.57 330.89a.62.62 0 011-.13l13.82 12.35a.69.69 0 001.11-.62l-.15-28.49a.86.86 0 00-.23-.58l-20.75-20.91a.85.85 0 01-.06-1.1.63.63 0 011-.07l18.93 19.08a.67.67 0 001.13-.58l-.12-31.35a.82.82 0 00-.23-.58l-13.77-13.54a.85.85 0 01-.07-1.1.63.63 0 011-.08L111.07 275c.44.44 1.13.08 1.13-.59l-.2-44.32a.74.74 0 01.68-.78.73.73 0 01.69.77l.25 65.62a.68.68 0 001.25.44l15.4-25.67a.64.64 0 01.95-.2.85.85 0 01.18 1.08l-17.65 29.41-.11-.09.1 26.89a.68.68 0 001.14.58l18.78-19.24a.62.62 0 011 .06.85.85 0 01-.06 1.1l-20.81 21.33.13 33.52a.73.73 0 01-.68.78.72.72 0 01-.69-.77l-.07-18.44a.82.82 0 00-.26-.61L96.69 332a.85.85 0 01-.12-1.11zM57 314.79a.63.63 0 011 .07l20.86 26.54c.44.57 1.27.15 1.18-.61l-1.71-15.48a.75.75 0 01.59-.87.7.7 0 01.76.67l2.24 20.17L90 355.65a.67.67 0 001.19-.43l1.47-14.8a.72.72 0 01.76-.69.75.75 0 01.6.86l-1.75 17.56a.85.85 0 00.17.61l10.89 13.87a.86.86 0 01-.05 1.1.63.63 0 01-1-.06l-5.88-7.49a.65.65 0 00-.55-.26l-10.85.75a.73.73 0 01-.73-.73.76.76 0 01.65-.83l8.69-.6a.8.8 0 00.47-1.29l-8.71-11.09a.65.65 0 00-.51-.25H69.34a.74.74 0 01-.68-.78.73.73 0 01.68-.78h13.08A.8.8 0 0083 349l-9.6-12.23a.65.65 0 00-.52-.26l-10 .14a.73.73 0 01-.69-.77.73.73 0 01.67-.79l7.6-.1a.8.8 0 00.5-1.3L57 315.89a.86.86 0 010-1.1zM127.77 350.28a.72.72 0 01.77.67l1.17 9.83a.67.67 0 001.17.44l9.05-10.71a.84.84 0 00.18-.6L139 332.27a.74.74 0 01.63-.83.71.71 0 01.73.71l1 14.87a.68.68 0 001.18.48l10-11.83a.91.91 0 00.19-.61l-.87-11.32a.77.77 0 01.62-.85.72.72 0 01.74.71l.66 8.62a.67.67 0 001.17.47l14.55-17.22a.63.63 0 011 0 .86.86 0 010 1.1l-21.68 25.67c-.47.55 0 1.45.62 1.3l13.43-3.11a.69.69 0 01.8.61.78.78 0 01-.53.92L145.67 346l-8.47 10a.8.8 0 00.47 1.32l13.06.57a.73.73 0 01.66.8.71.71 0 01-.71.74l-15.5-.67a.64.64 0 00-.52.24l-11.32 13.4a.63.63 0 01-1 0 .86.86 0 010-1.1l6.12-7.24a.85.85 0 00.18-.64l-1.46-12.28a.77.77 0 01.59-.86z" fill="#fff"/><g><path d="M377.2 329.43l-148.55 41.81a7.77 7.77 0 01-8.49-3.5L107.51 165a4.41 4.41 0 012.83-6.68l148.55-41.81a7.75 7.75 0 018.48 3.49L380 322.74a4.42 4.42 0 01-2.8 6.69z" fill="#263238" stroke="#000" stroke-miterlimit="10"/><path d="M226.56 362.35s85.84-20.42 143.62-40.43z" fill="#884849"/><path fill="#fff" stroke="#263238" stroke-miterlimit="10" d="M370.18 321.92l-143.62 40.43-111.09-199.92 143.62-40.42 111.09 199.91zM216.55 164.35l11.15-3.14M139.21 186.12l68.71-19.34M204.32 176.77l27.7-7.8M161.87 188.72l34.89-9.82M143.52 193.88l11.87-3.34M182.37 191.93l53.97-15.19M147.84 201.65l22.66-6.38"/><path d="M266.56 158.5a12.85 12.85 0 00-14-5.78c-5.17 1.46-7.26 6.4-4.68 11.05a12.82 12.82 0 0014 5.78c5.12-1.45 7.26-6.4 4.68-11.05zM169.6 217.6l-11.15 3.14M246.94 195.83l-68.71 19.34M190.46 220.71l-27.7 7.8M232.91 208.76l-34.89 9.82M251.26 203.6l-11.87 3.34M221.04 221.08l-53.96 15.19M255.58 211.36l-22.67 6.38M285.8 193.13a12.82 12.82 0 00-14-5.78c-5.17 1.45-7.26 6.4-4.68 11a12.81 12.81 0 0014 5.78c5.16-1.41 7.26-6.36 4.68-11zM255.03 233.59l11.15-3.14M177.69 255.36l68.71-19.34M242.8 246.02l27.7-7.8M200.35 257.97l34.89-9.83M182 263.13l11.87-3.34M220.85 261.17l53.96-15.18M186.32 270.9l22.66-6.38" fill="#fff" stroke="#263238" stroke-miterlimit="10"/><ellipse cx="295.68" cy="230.38" rx="8.48" ry="10.73" transform="rotate(-68.54 295.67 230.38)" fill="#fff" stroke="#263238" stroke-miterlimit="10"/><path fill="#fff" stroke="#263238" stroke-miterlimit="10" d="M208.08 286.85l-11.15 3.14M285.42 265.08l-68.71 19.34M228.94 289.96l-27.7 7.79M271.39 278.01l-34.89 9.82M289.74 272.84l-11.87 3.34M259.52 290.33l-53.96 15.19M294.05 280.61l-22.66 6.38M324.27 262.37a12.83 12.83 0 00-14-5.78c-5.17 1.46-7.26 6.4-4.68 11.05a12.82 12.82 0 0014 5.78c5.17-1.42 7.27-6.42 4.68-11.05zM293.51 302.84l11.15-3.14M216.17 324.61l68.71-19.34M281.28 315.26l27.7-7.79M238.83 327.21l34.89-9.82M220.48 332.38l11.87-3.35M259.33 330.42l53.96-15.19M224.8 340.14l22.66-6.38"/><ellipse cx="334.16" cy="299.63" rx="8.48" ry="10.73" transform="rotate(-68.54 334.15 299.63)" fill="#fff" stroke="#263238" stroke-miterlimit="10"/><path d="M210.47 125.4l-18.88 5.31c-1.43.06-3-.05-3.44-.78-1-1.88.28-3.64.68-5.3A7.6 7.6 0 00188 119a13.17 13.17 0 00-14.39-5.93c-5.3 1.5-7.44 6.57-4.8 11.33a12.41 12.41 0 005.56 5s3.83 1.71 4.6 3.09c.41.73-.66 1.59-1.75 2.24l-20.35 5.73a4.86 4.86 0 00-3.11 7.35l2.75 4.94 66.07-18.59-2.75-4.95a8.53 8.53 0 00-9.36-3.81zm-33.63-6.46a4.21 4.21 0 014.61 1.9 2.39 2.39 0 01-1.54 3.62 4.2 4.2 0 01-4.6-1.89 2.4 2.4 0 011.53-3.63z" fill="#007fff" stroke="#263238" stroke-miterlimit="10"/><path fill="none" stroke="#007fff" stroke-linecap="round" stroke-linejoin="round" stroke-width="6" d="M251.21 159.08l8.15 5.69 8.4-18.83M270.15 193.17l8.15 5.68 8.4-18.82"/></g><g><path d="M403.82 188.51s2.17-4.62.81-8.16-26.39-9.25-26.39-9.25-5.71 0-5.44 3.27 20.95 15.78 22.58 16.86 7.89 3.54 8.44-2.72zM380.31 166.53a49.21 49.21 0 01-4.53-1.94c-2.16-1.08.21 3.89 1.08 4.1s3 .65 3 .65z" fill="#fff" stroke="#263238" stroke-linecap="round" stroke-linejoin="round"/><path d="M305.61 214.9l-12.51 15.23 1.08 2.18 17.69-4.31 124.51-72.48a10.79 10.79 0 003.72-15h0a10.78 10.78 0 00-15-3.33z" fill="#007fff" stroke="#263238" stroke-linecap="round" stroke-linejoin="round"/><path fill="#fff" stroke="#263238" stroke-linecap="round" stroke-linejoin="round" d="M368.17 186.67l-4.06 2.62M403.12 164.19l-29.99 19.3"/><path d="M294.26 229.81s-3.11 1.3-2.63 2.61 4.94-1.86 4.94-1.86z" fill="#007fff" stroke="#263238" stroke-linecap="round" stroke-linejoin="round"/><path d="M293.1 230.13l1.08 2.18 17.69-4.31c-9.8-3.81-6.26-13.06-6.26-13.06zM440.1 140.45a10.78 10.78 0 00-15-3.33l-21.72 14.14a12.73 12.73 0 00-.88 4.68 12.15 12.15 0 0011.85 12.38l22.07-12.84a10.79 10.79 0 003.68-15.03z" fill="#fff" stroke="#263238" stroke-linecap="round" stroke-linejoin="round"/><path d="M440.1 140.45a10.78 10.78 0 00-15-3.33l-16.5 10.75a12.08 12.08 0 00-1.21 5.28 11.84 11.84 0 0011.7 12h.81l16.52-9.61a10.79 10.79 0 003.68-15.09z" fill="#263238" stroke="#263238" stroke-linecap="round" stroke-linejoin="round"/><path d="M366.5 171.5s-2.42 0-2.42 1.1-.64 5 .76 4.89 1.28-2.56 1.4-3.42.26-2.57.26-2.57z" fill="#fff" stroke="#263238" stroke-linecap="round" stroke-linejoin="round"/><path d="M369.14 167.52s-2.16-.67-2.66.66-1 7.65.5 7.48 1.83-5.81 2.16-8.14z" fill="#fff" stroke="#263238" stroke-linecap="round" stroke-linejoin="round"/><path d="M372.47 167.85s-2.5-2.16-3.33-.33-1 7 0 7 2.5-2.16 2.83-3.32a23 23 0 00.5-3.35z" fill="#fff" stroke="#263238" stroke-linecap="round" stroke-linejoin="round"/><path d="M376 168.85s-3.16-2.66-3.66-2.16-2.5 5.62-1 6.65 3.4-3.57 3.4-3.57zM330.33 184.63s.35 5.33 1.77 6.58a15.57 15.57 0 012.31 2.49 36.69 36.69 0 01.36 4.09c0 1.6 1.07 1.42 2 1.42s2.49 3 3.38 4.44a24.74 24.74 0 006 5.34c1.6.89 4.27-2.49 4.27-2.49l1.24 3.56 12.63-8.18-6.22-12.1a29 29 0 00-3.74-11.91c-3.56-6.4-8.36-10-16.36-7.65s-7.64 14.41-7.64 14.41z" fill="#fff" stroke="#263238" stroke-linecap="round" stroke-linejoin="round"/><path d="M344.94 160.93a29 29 0 00-8.73 1.75c-4.67 1.65-5.82 8.15-9.89 10.48s-2.33-2-4.37-.88-4.07 11.35.29 14.26 10.77-.87 10.77-.87-.58 2 1.16 2.62a29.94 29.94 0 003.21.87s-.3 3.5 2.32 3.2.3-4.36.3-4.36 4.95 9.6 8.74 10.77 9.31-4.08 10.76-6.41.29-18.91-2.91-25.31-11.65-6.12-11.65-6.12z" fill="#263238" stroke="#263238" stroke-linecap="round" stroke-linejoin="round"/><path d="M340.11 194.23s-1.78-6.76 1.06-5.87 4.45 6.94 4.27 7.65-1.6 1.06-2.31.89M360.66 196.68a75 75 0 00-9.48 6.32c-3 2.67-5.69 10.67-5.69 10.67s18.32-12.45 21.52-14.22 3.91-2.67 3.91-2.67-6.7-.99-10.26-.1zM385.32 185.79a11.23 11.23 0 017.34-5.44c5.17-1.09 12 2.45 12.79 8.16s-3.54 8.44-6.26 8.44-5.17-3.81-5.17-3.81-8.7-3.27-8.7-7.35zM312.41 246.46l8.71-23.13a5.34 5.34 0 01-3.54 1.36c-2.18 0-7.34-.81-6-1.63s6.52-4.35 6.52-4.35-3.8.82-4.89 0-1.63-1.91-.82-2.18 2.45 0 5.44-1.09 4.35-2.17 6.8-2.17 4.63 4.35 4.63 5.71-1.91 27.2-1.91 28.29 0 2.18-7.07 3-8.14-.82-7.87-3.81zM321.12 223.33l1.29-5.08" fill="#fff" stroke="#263238" stroke-linecap="round" stroke-linejoin="round"/><path d="M320.84 240.74s-8.7 2.45-10.33 6.26-1.36 9.52 1.9 12.79 4.63 4.08 8.16 2.72 4.36-3.54 4.63-5.72 2.17-9.52-4.36-16.05zM317.31 356.09s-7.62-3.54-10.61-2.18-3 2.72.81 8.71 14.42 13.33 18 11.69.27-12.51.27-12.51z" fill="#fff" stroke="#263238" stroke-linecap="round" stroke-linejoin="round"/><path d="M311.87 364.52a42.35 42.35 0 01-6.6-9.75c-1.4 1.24-.8 3.06 2.24 7.85 3.81 6 14.42 13.33 18 11.69a3.24 3.24 0 001.49-2.71c-5 2.11-10.17-1.6-15.13-7.08z" fill="#fff" stroke="#263238" stroke-linecap="round" stroke-linejoin="round"/><path d="M356.48 272.84l.27 8.17s-16.59 6.25-24.75 12-13.6 10.06-14.42 15.5-.27 47.61-.27 47.61-2.45.54-1.63 2.17 2.44 7.62 4.62 8.16 4.9 1.64 5.44.28 2.18-9.52 3.27-12.24S332 339 333.63 330a94.41 94.41 0 001.63-15.23 87.92 87.92 0 0016.87-4.08c9.52-3.27 23.39-9.25 23.39-9.25s11.16 28 13.61 33.46 12 17.68 13.87 21.22 13.87 18.77 13.87 18.77 4.63-4.08 7.62-4.08h4.08s-4.9-13.6-9-21.77-12.51-21.49-12.51-21.49-7.61-47.59-7.89-50.87c-.53-6.28-4.55-15.76-4.55-15.76s-13.11-2.77-38.14 11.92z" fill="#263238" stroke="#263238" stroke-linecap="round" stroke-linejoin="round"/><path d="M416.87 374.86a35.77 35.77 0 00-1.9 3.53c-.27.82-6.26 1.64-5.44 4.36s7.07 4.89 10.06 5.17 9-3.81 10.07-4.9c.64-.64 1.6-4.87 1.09-8.16a8.43 8.43 0 00-2.18-4.08s-5.17-7.89-11.7 4.08z" fill="#fff" stroke="#263238" stroke-linecap="round" stroke-linejoin="round"/><path d="M430.75 374.86a8 8 0 00-1.85-3.72 8.31 8.31 0 00-6 2.63c-2.72 3.26-1.36 10.61-4.63 11.7-2.43.81-6.68-2.16-8.68-3.72a1.54 1.54 0 000 1c.81 2.72 7.07 4.89 10.06 5.17s9-3.81 10.07-4.9c.58-.64 1.54-4.87 1.03-8.16z" fill="#fff" stroke="#263238" stroke-linecap="round" stroke-linejoin="round"/><path d="M423.67 376.76c-1.08 4.9.28 8.16-4.08 11.16 3 .27 9-3.81 10.07-4.9.64-.64 1.6-4.87 1.09-8.16a6.42 6.42 0 00-.67-1.95h-.42s-4.9-1.04-5.99 3.85z" fill="#263238" stroke="#263238" stroke-linecap="round" stroke-linejoin="round"/><path fill="none" stroke="#fff" stroke-linecap="round" stroke-linejoin="round" d="M378.24 300.86l16.05-7.88M385.59 297.33l13.87-1.91"/><path d="M391 183.89c-4.62.54-16.59 8.7-17.41 9.52s-4.08 2.72-5.44 3.81c0 0-28 17.41-30.47 19s-7.34 4.9-7.07 6-14.42 25-14.42 25-4.35 5.72-.27 10.88 7.89 1.64 9.79.55 16.87-15.24 16.87-15.24l13.8 33s19.11-12.81 39.52-12l-13.61-53.32s18.78-14.14 19.32-19-5.96-8.75-10.61-8.2z" fill="#fff"/><g clip-path="url(#a)"><path d="M391 183.89c-1.85.22-4.88 1.66-7.91 3.36a3.58 3.58 0 013.65 1.52c2.25 2.89-2.57 12.2-2.57 12.2s-2-12.86-1.92-9-1 15.73-1 15.73-6.42-7.7-6.1-5.78 4.49 19.9 7.06 26.64-1.93 25.67-4.49 31.12-1-23.1-3.86-16-12.51 26.63-14.76 28.56.72-26.17 1.52-29.83c-1 3.06-7.61 22.45-7.61 22.45l-9-23.11s-15.4-12.51-13.8-10.27 5.46 9.31 5.46 9.31-9.31-1.93-7.7-1.28 8.66 4.17 8.66 4.17-14.44 10.27-18.61 11.55a16.74 16.74 0 01-3.44.63 8.18 8.18 0 001.29 2.32c4.08 5.17 7.89 1.64 9.79.55s16.87-15.24 16.87-15.24l13.8 33s19.11-12.81 39.52-12l-13.61-53.32s18.78-14.14 19.32-19-5.91-8.83-10.56-8.28z" fill="#007fff"/><path d="M391 183.89c-1.85.22-4.88 1.66-7.91 3.36a3.58 3.58 0 013.65 1.52c2.25 2.89-2.57 12.2-2.57 12.2s-2-12.86-1.92-9-1 15.73-1 15.73-6.42-7.7-6.1-5.78 4.49 19.9 7.06 26.64-1.93 25.67-4.49 31.12-1-23.1-3.86-16-12.51 26.63-14.76 28.56.72-26.17 1.52-29.83c-1 3.06-7.61 22.45-7.61 22.45l-9-23.11s-15.4-12.51-13.8-10.27 5.46 9.31 5.46 9.31-9.31-1.93-7.7-1.28 8.66 4.17 8.66 4.17-14.44 10.27-18.61 11.55a16.74 16.74 0 01-3.44.63 8.18 8.18 0 001.29 2.32c4.08 5.17 7.89 1.64 9.79.55s16.87-15.24 16.87-15.24l13.8 33s19.11-12.81 39.52-12l-13.61-53.32s18.78-14.14 19.32-19-5.91-8.83-10.56-8.28z" fill="#fff" opacity=".5"/></g><path d="M391 183.89c-4.62.54-16.59 8.7-17.41 9.52s-4.08 2.72-5.44 3.81c0 0-28 17.41-30.47 19s-7.34 4.9-7.07 6-14.42 25-14.42 25-4.35 5.72-.27 10.88 7.89 1.64 9.79.55 16.87-15.24 16.87-15.24l13.8 33s19.11-12.81 39.52-12l-13.61-53.32s18.78-14.14 19.32-19-5.96-8.75-10.61-8.2z" fill="none" stroke="#263238" stroke-linecap="round" stroke-linejoin="round"/><path d="M356.41 276.41a71.61 71.61 0 011.15-22.41M353.83 259.74s0-4.6 5.17-19M332 231.5l10.61 11.96-10.88-7.89M382.32 195.86v15.23l3.54-19.58" fill="#fff" stroke="#263238" stroke-linecap="round" stroke-linejoin="round"/><path d="M360.78 242a2 2 0 00-.09.34c.12-.34.16-.47.09-.34z" fill="#263238"/></g></svg>