<svg xmlns="http://www.w3.org/2000/svg" viewBox="50.81 105.32 398.26 293.88"><defs/><defs><clipPath id="a"><path d="M168.05 331.43s8 17.76 9.91 21.34 4.13 13.77 4.4 19.82 0 7.3-1.37 7.16-1.93-7.71-1.93-8.95v-1.92s-.69 7.15-1.79 8.53-2.62 2.89-2.75 2.07.27-2.21.82-4.27a16.29 16.29 0 00.28-4.82s-.83 3.85-2.75 5.23-4 1.93-3.31.83 2.48-2.34 2.89-3.72a17.32 17.32 0 00.42-3.85s-2.62 4.26-3.72 4.95-1.1-.82-.41-1.51 2.2-5.37 2.2-5.37-.42-.28-2.34-4.54-3-11.71-3.58-14.6-1.65-6.74-1.65-6.74l-10.6-17.76s-.83-4.27 3.16-5 12.12 13.12 12.12 13.12z" fill="#fff" stroke="#263238" stroke-linecap="round" stroke-linejoin="round"/></clipPath><clipPath id="b"><path d="M178 358s1.38 6.75 1.24 9.77.55 4.55-.42 4.55-1.23-.69-2.2-3.72a35.52 35.52 0 01-1.24-6.88s-3.44 0-4.68-5.1" fill="#fff" stroke="#263238" stroke-linecap="round" stroke-linejoin="round"/></clipPath><clipPath id="c"><path d="M239 333.22c-1.09 0-7.89 0-12-1.09s-23.49-6.51-34.64-10.59-24.15-8.46-24.15-8.46a39.41 39.41 0 01-4.63-6.53c-1.23-2-4.45-8.53-7.82-15.48-10.85 2.84-16.31 8-19 12a261.84 261.84 0 0018.39 23.36c3.81 4.35 13.33 5.44 21.77 6.53s44.09 3.54 44.09 3.54a45 45 0 009.8 4.35c4.35 1.09 6.8 1.36 9.79.27s9.26-1.63 11.16-2.17 3-1.64 2.18-2.18-13.81-3.55-14.94-3.55z" fill="#fff" stroke="#263238" stroke-linecap="round" stroke-linejoin="round"/></clipPath><clipPath id="d"><path d="M171.3 191.36a20.67 20.67 0 0111.12 7.42 19.13 19.13 0 013.73 8.26c1.33 8.1-3.23 10.6-1.76 14.28s2.94 5.59 1.76 7.36-4.85 2.06-5.44 2.21-1.77 6.91-4.12 9.86-10.6-.44-10.6-.44-3.38 5.74-4.41 7.65 1 13.39-.45 18.54-4.85-.44-11.33-8.53-9.42-14.72-9.12-16.93 5.44-7.36 6.33-9.27 1.32-2.8.88-4.56-5.59-9-5.59-18.25 7.35-18.1 17.07-18.84a35.63 35.63 0 0111.93 1.24z" fill="#fff" stroke="#263238" stroke-linecap="round" stroke-linejoin="round"/></clipPath><clipPath id="e"><path d="M335.14 315.93c.26.78-.52 11.75-1.05 30.82-.4 14.63-3.87 40.63-5.47 51.93h55.59c.4-11.46.9-37.67-2.32-48.54-4.18-14.1-8.88-17-10.44-23.24s-3.92-40.75-7.84-53.81-15.67-20.9-17.5-23.77-7.58-19.59-7.58-19.59l-9.92 8.36s7.31 11.75 8.36 15.41-7.06 12.27-11.23 21.16-5 15.93-1.31 21.41 10.45 19.07 10.71 19.86z" fill="#007fff" stroke="#263238" stroke-linecap="round" stroke-linejoin="round"/></clipPath></defs><path d="M434.75 398.49H74.07s-14.34 4.68-22.25-32.56 32.8-47.22 42.48-79.38-32.55-25.39-29-69.4 61.58-44.86 89.73-38.93 24.63-14.39 57.18-48.25 81.79-30.46 106.41-4.23 16.72 53.32 47.51 53.32 58.94 5.93 77.41 62.63-15.29 82.62-14.68 108.18a275.52 275.52 0 005.89 48.62z" fill="#007fff"/><path d="M434.75 398.49H74.07s-14.34 4.68-22.25-32.56 32.8-47.22 42.48-79.38-32.55-25.39-29-69.4 61.58-44.86 89.73-38.93 24.63-14.39 57.18-48.25 81.79-30.46 106.41-4.23 16.72 53.32 47.51 53.32 58.94 5.93 77.41 62.63-15.29 82.62-14.68 108.18a275.52 275.52 0 005.89 48.62z" fill="#fff" opacity=".6"/><path fill="#007fff" d="M209.33 124.7h68v98h-68z"/><path fill="#fff" opacity=".4" d="M209.33 124.7h68v98h-68z"/><path fill="#fff" d="M219.05 138.7h48.57v70h-48.57z"/><path fill="#007fff" d="M108 183.37h47.18v68H108z"/><path fill="#fff" opacity=".4" d="M108 183.37h47.18v68H108z"/><path fill="#fff" d="M114.74 193.08h33.7v48.57h-33.7z"/><path fill="#007fff" d="M337 183.37h47.18v68H337z"/><path fill="#fff" opacity=".4" d="M337 183.37h47.18v68H337z"/><path fill="#fff" d="M343.74 193.08h33.7v48.57h-33.7z"/><g><path d="M331.63 319.41c-2 5-4.12 1-3.79-20.06.16-9.86.85-30 11.76-25.57 10.47 4.26-3.33 34.05-3.33 34.05zm15 3s22.73-23.69 14.2-31.12c-8.87-7.74-16.07 11.09-19.42 20.37-7.14 19.79-6.48 24.28-2.93 20.19zm4.79 21.26s20.81-14.82 15.37-21.74c-5.66-7.2-13.89 6.16-17.8 12.76-8.33 14.1-8.47 17.63-5.17 15zm5.63 21.2s20.82-14.82 15.38-21.74c-5.67-7.2-13.9 6.15-17.8 12.76-8.33 14.09-8.48 17.63-5.17 15zm-36.34-42.62s-29.13-15.16-33.86-4.89c-4.93 10.69 15.16 12.31 25 12.91 21 1.3 25.13-.6 20.21-2.86zm4.1 16.68s-31.56-9.06-34.16 1.95c-2.7 11.45 17.31 9 27.08 7.68 20.84-2.9 24.5-5.58 19.23-6.82zm7.22 18.2s-26.89-6.94-28.84 2.43c-2 9.75 14.85 7.25 23.08 5.87 17.55-2.94 20.59-5.29 16.11-6.21zm4.21 15s-26-9.76-28.93-.65c-3.05 9.49 14 8.79 22.32 8.29 17.77-1.06 21-3.07 16.67-4.47zM318.81 296s-11.87-36.9-25.35-30.19c-14 7 2.18 23.61 10.29 31.58 17.29 17 22.64 18.18 20.37 12.25z" fill="#fff"/><path d="M299.1 279s29.82 36.38 36.95 54.59c8.2 20.93 13.78 44.5 14.89 64M330.11 321.7l4.15-34.69M336.05 333.58l15-29.16M333.86 329.26l-31.42-6.4M341.95 350.13l18.47-21.04M339.37 343.2l-23.71-.21M343.94 360.42l-18.19.71M347.67 371.4l9.74-12.98M348.39 376.23l-21.28-1.06" fill="none" stroke="#ccc" stroke-linecap="round" stroke-linejoin="round" stroke-width="1.25"/><path d="M407.65 348.14c-3.67 1.38-2.55-1.71 8.8-11.87 5.32-4.77 16.38-14.3 19.38-6.32 2.89 7.67-19.74 15-19.74 15zm5.77 9.43s23.78.45 23.54-7.74c-.25-8.52-13.8-3.1-20.38-.32-14 5.93-16.11 8.49-12.19 8.37zm-8.95 13s18.11 3.79 19.12-2.51c1-6.55-10.11-4.36-15.54-3.19-11.59 2.49-13.54 4.15-10.53 4.63zM396 384s18.12 3.79 19.12-2.51c1.05-6.55-10.1-4.37-15.54-3.2-11.58 2.49-13.58 4.15-10.58 4.63zm4.81-40.28s-6.26-22.95-14-20.42c-8.11 2.63.91 14.12 5.43 19.65 9.63 11.81 12.67 13.07 11.45 9.34zm-6.86 10.38s-10.69-21.24-17.82-17.22c-7.43 4.2 3.69 13.66 9.21 18.18 11.79 9.66 15 10.29 13.09 6.88zm-6.13 12.78s-9.53-17.71-15.47-14.14c-6.18 3.72 3.44 11.46 8.22 15.16 10.19 7.89 12.93 8.35 11.22 5.51zm-5.92 9.63s-7.6-18.63-13.88-15.71c-6.54 3 2.2 11.76 6.56 15.95 9.3 8.93 12 9.68 10.58 6.67zm31.91-46.67s13.79-24.45 3.6-28.32c-10.6-4-11.49 12.77-11.74 21-.54 17.56 1.46 21 3.5 16.86z" fill="#fff"/><path d="M413.15 311s-4.69 33.74-10.87 46.49c-7.1 14.64-17.82 30.23-27.66 40.41M405.68 348.46l20.49-14.84M402.28 357.46l22.88-6.36M403.5 354.17l-12.04-19.86M396.38 368.73l20.27-.52M398.8 363.95l-11.55-12.72M391.88 374.84l-9.32-9.32M387.87 382.23l11.7-1.2M385.65 384.98l-9.89-11.83" fill="none" stroke="#ccc" stroke-linecap="round" stroke-linejoin="round" stroke-width="1.25"/><path d="M101.21 319.41c-2 5-4.12 1-3.79-20.06.16-9.86.85-30 11.76-25.57 10.48 4.26-3.33 34.05-3.33 34.05zm15 3s22.73-23.69 14.21-31.12c-8.88-7.74-16.08 11.09-19.43 20.37-7.14 19.79-6.48 24.28-2.93 20.19zm4.79 21.24s20.82-14.82 15.37-21.74c-5.66-7.2-13.89 6.16-17.8 12.76-8.33 14.1-8.47 17.63-5.16 15zm5.64 21.2S147.43 350 142 343.11c-5.67-7.2-13.9 6.15-17.8 12.76-8.33 14.09-8.48 17.63-5.17 15zm-36.37-42.62s-29.12-15.16-33.86-4.89c-4.93 10.69 15.16 12.31 25 12.91 21 1.3 25.12-.6 20.2-2.86zm4.1 16.68s-31.55-9.06-34.16 1.95c-2.7 11.45 17.31 9 27.08 7.68 20.84-2.9 24.51-5.58 19.24-6.82zm7.22 18.2s-26.89-6.94-28.84 2.43c-2 9.75 14.85 7.25 23.08 5.87 17.55-2.94 20.59-5.29 16.11-6.21zm4.21 15s-26-9.76-28.93-.65c-3.05 9.49 14 8.79 22.32 8.29 17.77-1.06 21-3.07 16.68-4.47zM88.39 296S76.52 259.14 63 265.85c-14 7 2.18 23.61 10.29 31.58 17.3 17 22.65 18.18 20.37 12.25z" fill="#fff"/><path d="M68.68 279s29.82 36.38 36.95 54.59c8.2 20.93 13.78 44.5 14.89 64M99.7 321.7l4.14-34.69M105.63 333.58l15-29.16M103.44 329.26l-31.41-6.4M111.53 350.13L130 329.09M108.95 343.2l-23.71-.21M113.52 360.42l-18.19.71M117.26 371.4l9.74-12.98M117.97 376.23l-21.28-1.06" fill="none" stroke="#ccc" stroke-linecap="round" stroke-linejoin="round" stroke-width="1.25"/><path d="M177.23 348.14c-3.67 1.38-2.55-1.71 8.8-11.87 5.33-4.77 16.38-14.3 19.38-6.32 2.89 7.67-19.74 15-19.74 15zm5.77 9.43s23.78.45 23.54-7.74c-.25-8.52-13.8-3.1-20.38-.32-14 5.93-16.11 8.49-12.19 8.37zm-8.95 13s18.11 3.79 19.12-2.51c1-6.55-10.11-4.36-15.54-3.19-11.63 2.49-13.54 4.13-10.53 4.63zM165.54 384s18.12 3.79 19.12-2.51c1.05-6.55-10.1-4.37-15.53-3.2-11.6 2.5-13.55 4.16-10.53 4.64zm4.81-40.28s-6.25-22.95-14-20.42c-8.11 2.63.9 14.12 5.42 19.65 9.63 11.81 12.67 13.07 11.45 9.34zm-6.86 10.38s-10.69-21.24-17.82-17.22c-7.43 4.2 3.69 13.66 9.22 18.18 11.79 9.66 15 10.29 13.08 6.88zm-6.13 12.78s-9.53-17.71-15.47-14.14c-6.18 3.72 3.44 11.46 8.22 15.16 10.19 7.89 12.94 8.35 11.22 5.51zm-5.92 9.63s-7.59-18.63-13.88-15.71c-6.54 3 2.21 11.76 6.56 15.95 9.3 8.93 12 9.68 10.58 6.67zm31.91-46.67s13.8-24.45 3.61-28.32c-10.61-4-11.49 12.77-11.75 21-.53 17.56 1.46 21 3.5 16.86z" fill="#fff"/><path d="M182.73 311s-4.69 33.74-10.87 46.49c-7.1 14.64-17.82 30.23-27.66 40.41M175.26 348.46l20.49-14.84M171.86 357.46l22.88-6.36M173.08 354.17l-12.04-19.86M165.96 368.73l20.27-.52M168.38 363.95l-11.55-12.72M161.46 374.84l-9.32-9.32M157.45 382.23l11.7-1.2M155.24 384.98l-9.9-11.83" fill="none" stroke="#ccc" stroke-linecap="round" stroke-linejoin="round" stroke-width="1.25"/></g><g><path d="M234.47 191.7s-12.8-4.08-22.59 6-4.63 30.21-4.63 37.28-9 52-9 52-4.36 16.33 7.62 26.68 34.12 9.45 43.57-10.47-.57-48.32-.57-63 2.18-24.49-1.09-35.1a20.63 20.63 0 00-13.31-13.39z" fill="#263238" stroke="#263238" stroke-linecap="round" stroke-linejoin="round"/><path d="M230.67 199.33S218.33 214.67 210 219M220 198s-6.33 15.33-12 19.67" fill="none" stroke="#fff" stroke-linecap="round" stroke-linejoin="round"/><path d="M255.51 250.73a10.2 10.2 0 014.28 7.2c.73 5.1-4.71 16.89-5.8 22.72A208 208 0 00252 302c0 1.82 6.2 28.78 7.29 35.34s-.55 22-1.46 23.13-3.46-4.19-3.64-7.65-6.92-30.06-9.47-38.07-1.83-18.58-1.83-18.58 3.47-24.23 3.47-33.52.28-16.24.28-16.24z" fill="#007fff" stroke="#263238" stroke-linecap="round" stroke-linejoin="round"/><path d="M257.81 360.43c.91-1.09 2.55-16.58 1.46-23.13S252 303.78 252 302a208 208 0 012-21.31 46.86 46.86 0 011.54-5.52 15.76 15.76 0 01-6.87 1.56c-1.27 0-2.51 1.17-3.7 3.16-1 8.46-2.09 16.28-2.09 16.28s-.72 10.56 1.83 18.58 9.29 34.61 9.47 38.07 2.72 8.7 3.63 7.61z" fill="#fff" stroke="#263238" stroke-linecap="round" stroke-linejoin="round"/><path d="M221.24 398.68c.4-4.48 1.24-13.6 1.78-17.12.73-4.73 2.18-14.39 2.18-14.39l3.69 31.51h25.28c.91-6.87 3.2-25.29 3.64-38.25.55-16.21-11.66-49.73-12-52.28s.36-10 .36-12.2 6.36-16.16 6.9-23.27 2.19-9.29 2.19-9.29l.91-12c-.55-.18-8.72-6.61-16.92-9a30.57 30.57 0 00-15.3-.36s-11.84 5.28-17.85 7.83-10.95 7.47-11.1 13.84 11.65 33.52 12.75 35.53-2.37 9.1-3.83 12.75-7.47 16.76-11.47 31.33c-3.43 12.44-1.14 45.87-.39 55.37z" fill="#007fff" stroke="#263238" stroke-linecap="round" stroke-linejoin="round"/><path d="M226.92 294.2s9.34 1.12 18.69-7.85" fill="none" stroke="#263238" stroke-linecap="round" stroke-linejoin="round"/><path d="M233.4 268.08c2.73-.73 6.2-12 6.56-17.85.2-3.27.4-5.71.31-7.51l-1-.33a30.57 30.57 0 00-15.3-.36l-4.82 2.14a15.09 15.09 0 00.81 7.69c1.97 5.47 10.71 16.95 13.44 16.22z" fill="#fff" stroke="#263238" stroke-linecap="round" stroke-linejoin="round"/><path d="M221.2 236.44s.92 10.73 1.47 13.36 6.08 13 9.21 12.43 5.12-14.12 5.12-15.44.37-12 .37-12-6.59 5.41-16.17 1.65z" fill="#fff" stroke="#263238" stroke-linecap="round" stroke-linejoin="round"/><path d="M203.16 251.68s-7.46.37-11.65 8.75.72 14 2.36 17.3 6.2 16.76 7.65 20.77 4.38 8.74 9.48 15.3 15.84 20.58 15.84 20.58l2.92 5.1s4.92 5.65 5.46 5.83 3.83 4.37 5.1 1.82 0-11.65 0-11.65 2 4 2.74 3.09-.19-2.91-.91-5.1-7.46-6.37-8.93-6.56-3.28-2-5.46-6.37-3.83-12-7.29-16.58-8-11.29-8-11.29-5.1-18.22-5.1-18.95a20.18 20.18 0 00-1.45-10" fill="#007fff" stroke="#263238" stroke-linecap="round" stroke-linejoin="round"/><path d="M233.22 326.91c-1.46-.18-3.28-2-5.46-6.37s-3.83-12-7.29-16.58-8-11.29-8-11.29-3.45-12.34-4.67-17.11c-6.7-.94-11.12.41-13.93 2.13a.08.08 0 010 0c1.64 3.28 6.2 16.76 7.65 20.77s4.38 8.74 9.48 15.3 15.84 20.58 15.84 20.58l2.92 5.1s4.92 5.65 5.46 5.83 3.83 4.37 5.1 1.82 0-11.65 0-11.65 2 4 2.74 3.09-.19-2.91-.91-5.1-7.46-6.33-8.93-6.52z" fill="#fff" stroke="#263238" stroke-linecap="round" stroke-linejoin="round"/><path d="M221.24 398.68c.4-4.48 1.24-13.6 1.78-17.12.73-4.73 2.18-14.39 2.18-14.39l3.69 31.51h25.28c.91-6.87 3.2-25.29 3.64-38.25.23-6.75-1.76-16.51-4.18-25.78-21.37 4.68-45.6 1.29-58.18-1.15-1.06 3.13-2.1 6.42-3 9.81-3.43 12.44-1.14 45.87-.39 55.37z" fill="#263238" stroke="#263238" stroke-linecap="round" stroke-linejoin="round"/><path d="M214.87 220.46s-1.63-.73-1.63 2.54 3.63 5.44 3.63 5.44z" fill="#fff" stroke="#263238" stroke-linecap="round" stroke-linejoin="round"/><path d="M233.58 202.5s-5.82 8.2-10.93 11.48a81.73 81.73 0 01-8.19 4.73s2.55 10.57 3.64 14 4.36 9.49 10.92 9.85 9.48-6.57 10.76-9.85a14.17 14.17 0 001.15-5.36 7.62 7.62 0 003.46-5.28c.36-3.46-.55-3.28-.55-3.28s-1 1.13-3.17-.57c-1.76-1.31-7.67-10.8-7.09-15.72z" fill="#fff" stroke="#263238" stroke-linecap="round" stroke-linejoin="round"/><path d="M219.69 223.21s2.57-1.88 6.33 0M231.32 223.55s3.08-2.74 6.33-.51M219.18 219.1s1.37-2.56 6-1.36M231.32 217.91a5.29 5.29 0 017 .68M230.81 229.19s-2.74 1.88-3.93 0M225.85 233.13s3.42 1.36 5.13-.17" fill="none" stroke="#263238" stroke-linecap="round" stroke-linejoin="round"/><path d="M168.05 331.43s8 17.76 9.91 21.34 4.13 13.77 4.4 19.82 0 7.3-1.37 7.16-1.93-7.71-1.93-8.95v-1.92s-.69 7.15-1.79 8.53-2.62 2.89-2.75 2.07.27-2.21.82-4.27a16.29 16.29 0 00.28-4.82s-.83 3.85-2.75 5.23-4 1.93-3.31.83 2.48-2.34 2.89-3.72a17.32 17.32 0 00.42-3.85s-2.62 4.26-3.72 4.95-1.1-.82-.41-1.51 2.2-5.37 2.2-5.37-.42-.28-2.34-4.54-3-11.71-3.58-14.6-1.65-6.74-1.65-6.74l-10.6-17.76s-.83-4.27 3.16-5 12.12 13.12 12.12 13.12z" fill="#fff"/><g clip-path="url(#a)"><path d="M168.05 331.43s8 17.76 9.91 21.34 4.13 13.77 4.4 19.82 0 7.3-1.37 7.16-1.93-7.71-1.93-8.95v-1.92s-.69 7.15-1.79 8.53-2.62 2.89-2.75 2.07.27-2.21.82-4.27a16.29 16.29 0 00.28-4.82s-.83 3.85-2.75 5.23-4 1.93-3.31.83 2.48-2.34 2.89-3.72a17.32 17.32 0 00.42-3.85s-2.62 4.26-3.72 4.95-1.1-.82-.41-1.51 2.2-5.37 2.2-5.37-.42-.28-2.34-4.54-3-11.71-3.58-14.6-1.65-6.74-1.65-6.74l-10.6-17.76s-.83-4.27 3.16-5 12.12 13.12 12.12 13.12z" opacity=".15"/></g><path d="M168.05 331.43s8 17.76 9.91 21.34 4.13 13.77 4.4 19.82 0 7.3-1.37 7.16-1.93-7.71-1.93-8.95v-1.92s-.69 7.15-1.79 8.53-2.62 2.89-2.75 2.07.27-2.21.82-4.27a16.29 16.29 0 00.28-4.82s-.83 3.85-2.75 5.23-4 1.93-3.31.83 2.48-2.34 2.89-3.72a17.32 17.32 0 00.42-3.85s-2.62 4.26-3.72 4.95-1.1-.82-.41-1.51 2.2-5.37 2.2-5.37-.42-.28-2.34-4.54-3-11.71-3.58-14.6-1.65-6.74-1.65-6.74l-10.6-17.76s-.83-4.27 3.16-5 12.12 13.12 12.12 13.12z" fill="none" stroke="#263238" stroke-linecap="round" stroke-linejoin="round"/><path d="M178 358s1.38 6.75 1.24 9.77.55 4.55-.42 4.55-1.23-.69-2.2-3.72a35.52 35.52 0 01-1.24-6.88s-3.44 0-4.68-5.1" fill="#fff"/><g clip-path="url(#b)"><path d="M178 358s1.38 6.75 1.24 9.77.55 4.55-.42 4.55-1.23-.69-2.2-3.72a35.52 35.52 0 01-1.24-6.88s-3.44 0-4.68-5.1" opacity=".15"/></g><path d="M178 358s1.38 6.75 1.24 9.77.55 4.55-.42 4.55-1.23-.69-2.2-3.72a35.52 35.52 0 01-1.24-6.88s-3.44 0-4.68-5.1" fill="none" stroke="#263238" stroke-linecap="round" stroke-linejoin="round"/><path d="M116.55 398.68h50.68c.25-9.48 1.91-71.4 2.41-74.17.55-3 3.27-31.3 3.54-42.45s-4.63-27.22-4.63-28.31-.81-7.89-8.43-13.61-13.61-5.71-15.24-4.9c0 0-6 4.09-15.52 14.16s-12.79 18.23-12.79 33.74a162.66 162.66 0 002.45 28s-3 48.44-3 49.53.44 31.54.53 38.01z" fill="#fff" stroke="#263238" stroke-linecap="round" stroke-linejoin="round"/><path d="M139.55 289.18a30.07 30.07 0 003.22-.18c11.66-1.27 21.8-13.19 28.49-23.49-.31-1.49-.62-2.92-.93-4.23-6.31 10.29-16.51 23.5-27.88 24.74-15.83 1.72-23-10.75-25-14.78a50.04 50.04 0 00-.63 4.87c3.54 5.36 10.69 13.07 22.73 13.07zM135.75 265.12l2.9.77a62.66 62.66 0 0117-28.58 24.24 24.24 0 00-3-1.33 65 65 0 00-16.9 29.14z" fill="#263238"/><path d="M138.6 279.47c.68-.35 14.85-7.73 29.81-27a16.19 16.19 0 00-1.1-3.51c-15.06 20-29.91 27.74-30.07 27.82zM123.81 268.62l3-.45c0-.08-.87-7.17 6.11-22.39a158.47 158.47 0 00-3.53 3.62c-.8.84-1.54 1.67-2.25 2.5-4.09 11.1-3.37 16.42-3.33 16.72zM148.55 313.07c-17.24 2.24-26-1.38-29.92-4.16.23 1.46.39 2.27.39 2.27s0 .53-.09 1.49c3.84 2.11 10 4.11 19.43 4.11a82.19 82.19 0 0010.58-.73 56.53 56.53 0 0022.41-7.92l.34-3.86a53.41 53.41 0 01-23.14 8.8zM147.66 331.53a75.5 75.5 0 0022.34-9.74l.42-3.91a73.9 73.9 0 01-23.48 10.73c-11.61 2.85-22.88-.33-28.83-2.62l-.19 3.16a56.5 56.5 0 0019.28 3.61 44.3 44.3 0 0010.46-1.23zM116.58 351.13l-.18 3A104 104 0 00140 357a76.93 76.93 0 0028.6-5.18c0-1.1.07-2.2.1-3.27-20.08 8.45-41.56 5.15-52.12 2.58zM149.85 341.23a61.5 61.5 0 01-32.61-1l-.19 3.12a60.22 60.22 0 0018 2.63 69.14 69.14 0 0015.51-1.78 76.84 76.84 0 0018.52-6.9c0-1.24.09-2.42.13-3.52a73.82 73.82 0 01-19.36 7.45zM141.45 299c-12.3.62-20.25-3.92-24.66-7.66a147 147 0 00.26 4 37.23 37.23 0 0022.13 6.72c.79 0 1.6 0 2.42-.06 12.07-.61 22.75-5.89 31.38-15.25.1-1.75.17-3.35.2-4.68v-.2c-7.05 8.75-17.28 16.39-31.73 17.13z" fill="#263238"/><path d="M161.88 241.6c-.55-.49-1.12-1-1.76-1.46-7.62-5.71-13.61-5.71-15.24-4.9a83.39 83.39 0 00-9 7.62 8.24 8.24 0 001.64 7.08c5.17 6.53 22 31.57 26.4 26.13s3.26-20.41-1.64-33.48c-.12-.34-.28-.67-.4-.99z" fill="#007fff" stroke="#263238" stroke-linecap="round" stroke-linejoin="round"/><path d="M146 270.35s14.7 31.3 17.69 36.2a39.41 39.41 0 004.63 6.53s13 4.37 24.15 8.46 30.53 9.46 34.6 10.59 10.88 1.09 12 1.09 14.15 3 15 3.54-.27 1.63-2.18 2.18-8.16 1.08-11.16 2.17-5.44.82-9.79-.27a45 45 0 01-9.8-4.35S185.43 334 177 333s-18-2.18-21.77-6.53a254.32 254.32 0 01-20.9-27.06c-5.12-7.74-14.49-18.61-10.94-28.46" fill="#fff" stroke="#263238" stroke-linecap="round" stroke-linejoin="round"/><path d="M239 333.22c-1.09 0-7.89 0-12-1.09s-23.49-6.51-34.64-10.59-24.15-8.46-24.15-8.46a39.41 39.41 0 01-4.63-6.53c-1.23-2-4.45-8.53-7.82-15.48-10.85 2.84-16.31 8-19 12a261.84 261.84 0 0018.39 23.36c3.81 4.35 13.33 5.44 21.77 6.53s44.09 3.54 44.09 3.54a45 45 0 009.8 4.35c4.35 1.09 6.8 1.36 9.79.27s9.26-1.63 11.16-2.17 3-1.64 2.18-2.18-13.81-3.55-14.94-3.55z" fill="#fff"/><g clip-path="url(#c)"><path d="M239 333.22c-1.09 0-7.89 0-12-1.09s-23.49-6.51-34.64-10.59-24.15-8.46-24.15-8.46a39.41 39.41 0 01-4.63-6.53c-1.23-2-4.45-8.53-7.82-15.48-10.85 2.84-16.31 8-19 12a261.84 261.84 0 0018.39 23.36c3.81 4.35 13.33 5.44 21.77 6.53s44.09 3.54 44.09 3.54a45 45 0 009.8 4.35c4.35 1.09 6.8 1.36 9.79.27s9.26-1.63 11.16-2.17 3-1.64 2.18-2.18-13.81-3.55-14.94-3.55z" opacity=".15"/></g><path d="M239 333.22c-1.09 0-7.89 0-12-1.09s-23.49-6.51-34.64-10.59-24.15-8.46-24.15-8.46a39.41 39.41 0 01-4.63-6.53c-1.23-2-4.45-8.53-7.82-15.48-10.85 2.84-16.31 8-19 12a261.84 261.84 0 0018.39 23.36c3.81 4.35 13.33 5.44 21.77 6.53s44.09 3.54 44.09 3.54a45 45 0 009.8 4.35c4.35 1.09 6.8 1.36 9.79.27s9.26-1.63 11.16-2.17 3-1.64 2.18-2.18-13.81-3.55-14.94-3.55z" fill="none" stroke="#263238" stroke-linecap="round" stroke-linejoin="round"/><path d="M167.23 398.68c.12-4.72.6-22.55 1.11-39.56a85 85 0 01-22.47 5.4c-16 1.87-25.22-2-29.78-5 0 .67-.06 1.09-.06 1.18 0 1 .43 31.5.52 38z" fill="#007fff" stroke="#263238" stroke-linecap="round" stroke-linejoin="round"/><path d="M154.48 396.41C152 387 158 375 149.34 368.77M154.48 374.76l11.14-10.7M126.55 374.83l-.29 21.58M126.65 367.06l-.05 3.94" fill="none" stroke="#263238" stroke-linecap="round" stroke-linejoin="round"/><path d="M171.3 191.36a20.67 20.67 0 0111.12 7.42 19.13 19.13 0 013.73 8.26c1.33 8.1-3.23 10.6-1.76 14.28s2.94 5.59 1.76 7.36-4.85 2.06-5.44 2.21-1.77 6.91-4.12 9.86-10.6-.44-10.6-.44-3.38 5.74-4.41 7.65 1 13.39-.45 18.54-4.85-.44-11.33-8.53-9.42-14.72-9.12-16.93 5.44-7.36 6.33-9.27 1.32-2.8.88-4.56-5.59-9-5.59-18.25 7.35-18.1 17.07-18.84a35.63 35.63 0 0111.93 1.24z" fill="#fff"/><g clip-path="url(#d)"><path d="M171.3 191.36a20.67 20.67 0 0111.12 7.42 19.13 19.13 0 013.73 8.26c1.33 8.1-3.23 10.6-1.76 14.28s2.94 5.59 1.76 7.36-4.85 2.06-5.44 2.21-1.77 6.91-4.12 9.86-10.6-.44-10.6-.44-3.38 5.74-4.41 7.65 1 13.39-.45 18.54-4.85-.44-11.33-8.53-9.42-14.72-9.12-16.93 5.44-7.36 6.33-9.27 1.32-2.8.88-4.56-5.59-9-5.59-18.25 7.35-18.1 17.07-18.84a35.63 35.63 0 0111.93 1.24z" opacity=".15"/></g><path d="M171.3 191.36a20.67 20.67 0 0111.12 7.42 19.13 19.13 0 013.73 8.26c1.33 8.1-3.23 10.6-1.76 14.28s2.94 5.59 1.76 7.36-4.85 2.06-5.44 2.21-1.77 6.91-4.12 9.86-10.6-.44-10.6-.44-3.38 5.74-4.41 7.65 1 13.39-.45 18.54-4.85-.44-11.33-8.53-9.42-14.72-9.12-16.93 5.44-7.36 6.33-9.27 1.32-2.8.88-4.56-5.59-9-5.59-18.25 7.35-18.1 17.07-18.84a35.63 35.63 0 0111.93 1.24z" fill="none" stroke="#263238" stroke-linecap="round" stroke-linejoin="round"/><path d="M173.06 198.07c3.54-1.74 6.05-1.69 7.69-1.2a20.9 20.9 0 00-9.45-5.51 35.63 35.63 0 00-11.93-1.24c-9.72.74-17.07 9.57-17.07 18.84s5.15 16.48 5.59 18.25A4.45 4.45 0 01148 229c7 1.39 9.29-2.11 9.29-2.11a6 6 0 01-4.56-1.32c-2.07-1.77-2.07-8.54.44-11.63s5 1.18 5 3.68 1.18 4.56 2.36 4.27.88-3.09 1.32-4.86 5.59-4.41 6.77-5.88-.59-2.8-2.5-5-.28-4.55 6.94-8.08z" fill="#263238" stroke="#263238" stroke-linecap="round" stroke-linejoin="round"/><path d="M157 227.35s0 4.13 2.51 6.77M179.92 219.9a8 8 0 00-3.95-.59M182.09 216.35s-2.17-3.75-6.32-.79M177 232.93a4 4 0 01-4.15-2.76" fill="none" stroke="#263238" stroke-linecap="round" stroke-linejoin="round"/><path d="M148.45 275.63l-1.88-4c-12.09.21-19.17 4.72-23.17 9a28.7 28.7 0 001.62 4.15c3.15-4.09 9.9-9.44 23.43-9.15zM152.64 284.42l-1.88-3.94c-11.23.6-18.78 4.74-23.41 8.54.7 1.16 1.45 2.3 2.2 3.41 4.27-3.6 11.7-7.8 23.09-8.01z" fill="#263238"/><path d="M282.81 311.14c1.26 3.77 2.1 17.18 2.1 24.31 0 5.94-3.8 49.14-5.06 63.23h56.82c.68-13.75 2.71-55.07 2.71-60.3 0-6.29-2.1-32.06.63-41.07s5.86-32.68 1-40-23-11.52-28.49-13.41-13.62-2.93-17.6-1c0 0-10.89 6.08-17.6 12.36s-9.63 15.93-8.38 23.68 12.61 28.43 13.87 32.2z" fill="#fff" stroke="#263238" stroke-linecap="round" stroke-linejoin="round"/><path d="M332.18 250.71a76.91 76.91 0 00-7.51-3 165.29 165.29 0 01-42.53 61.82c.31.69.54 1.25.67 1.63a42.26 42.26 0 011.22 7.48 171.21 171.21 0 0048.15-67.93zM343.26 278a64.42 64.42 0 00-.28-15c-11.67 19.71-31.85 49.77-58.09 73.3-.07 2.07-.33 6.11-.72 11.23 25.54-21.14 45.74-48.47 59.09-69.53z" fill="#263238"/><path d="M336.67 398.68c.48-9.79 1.65-33.54 2.28-48.31-27.65 5.29-47.09.26-54.81-2.45a4753.08 4753.08 0 01-4.29 50.76z" fill="#263238" stroke="#263238" stroke-linecap="round" stroke-linejoin="round"/><ellipse cx="302.08" cy="254.55" rx="13.74" ry="13.29" fill="#007fff" stroke="#263238" stroke-linecap="round" stroke-linejoin="round"/><path d="M289.52 237.81s2.3 8.17 2.3 13 5.24 15.93 13.83 10.9 4.19-16.55 2.72-20.12a58.93 58.93 0 01-2.51-8.38s-2.73 5-8 5.24a30.81 30.81 0 01-8.34-.64z" fill="#fff" stroke="#263238" stroke-linecap="round" stroke-linejoin="round"/><path d="M275.35 208.15s-1.45 3.61.36 6.5l4.29 6.85-.36-15.87s-3.57-2.89-4.29 2.52z" fill="#263238" stroke="#263238" stroke-linecap="round" stroke-linejoin="round"/><path d="M280 217.89s-2.89 1.09-1.45 5.77 3.61 3.25 3.61 3.25z" fill="#fff" stroke="#263238" stroke-linecap="round" stroke-linejoin="round"/><path d="M277.36 209.74s2.52 13 4 19.48 9.43 12.36 13.62 13.62 9.64-3.35 10.9-6.07 1.88-8.8 1.88-8.8 4.61-1.89 5-6.71-.84-6.28-3.35-6.91l-1.89-.84s1.05-7.75-1.67-12.57-12.36 1.47-17.39 2.93-11.73 1.05-11.1 5.87z" fill="#fff" stroke="#263238" stroke-linecap="round" stroke-linejoin="round"/><path d="M289.52 219.17s-1 7.54.41 8.17 4.19-.84 4.82-1.05M293.5 232s5.86.84 8.17-5.87M282.39 217.49a4.63 4.63 0 014.4-2.09M292.45 214.35s4.19-2.1 6.7.21" fill="none" stroke="#263238" stroke-linecap="round" stroke-linejoin="round"/><ellipse cx="285.95" cy="220.84" rx="1.05" ry="2.1" transform="rotate(-9.86 286.07 220.95)" fill="#263238"/><ellipse cx="295.17" cy="218.96" rx="1.05" ry="2.1" transform="rotate(-9.86 295.28 219.06)" fill="#263238"/><path d="M301.25 204.08a83.13 83.13 0 01-17.39 5.92c-9.22 1.88-13.41-.21-13-4.82s12.36-14.67 23.25-14.67 14.67 5 15.3 10.27a90.12 90.12 0 010 13.62l-1.89 2.72S308 215 305 213.3s-5.22-4.82-3.75-9.22zM359.56 219.06c2.05 1.57-.36 8.13 6.4 13.39 15.56 12.1 24.56 20.29 26.22 38.27 1.82 19.6-8.71 27.22-5.44 33.75s7.62 14.15.72 20-18.14 10.89-27.57-2.9-14.52-44.27-18.51-61-10.52-24.67-9.44-31.93c1.06-7 6.77-12 13.6-13.21a17.51 17.51 0 0114.02 3.63z" fill="#263238" stroke="#263238" stroke-linecap="round" stroke-linejoin="round"/><path d="M340.82 288.73L311.74 310s-46.57 16.64-49.31 17.49-15.8 3.16-18.54 4.63-8 11.17-8.85 13.49a1.71 1.71 0 002.32 2.32c.63-.64 6.74-6.54 8.64-6.75s3.58-.42 3.58-.42-4.85 4.22-5.06 5.48.85.84 2.11.21 6.11-2.32 8-5.69 3.58-5.27 6.74-6.53 44.4-10.2 51.78-11.46 33.93-17.21 35.2-17.42-3.52-16.62-7.53-16.62z" fill="#fff" stroke="#263238" stroke-linecap="round" stroke-linejoin="round"/><path d="M335.14 315.93c.26.78-.52 11.75-1.05 30.82-.4 14.63-3.87 40.63-5.47 51.93h55.59c.4-11.46.9-37.67-2.32-48.54-4.18-14.1-8.88-17-10.44-23.24s-3.92-40.75-7.84-53.81-15.67-20.9-17.5-23.77-7.58-19.59-7.58-19.59l-9.92 8.36s7.31 11.75 8.36 15.41-7.06 12.27-11.23 21.16-5 15.93-1.31 21.41 10.45 19.07 10.71 19.86z" fill="#007fff"/><g clip-path="url(#e)" fill="#fff"><path d="M343.64 369.6l9.11 2 9.11-2 9.11 2 9.11-2 4.22.92-.09-2.06-4.13-.91-9.11 2-9.11-2-9.11 2-9.11-2-9.1 2-2.19-.48-.22 2 2.41.53zM353.7 301.16l-9.11 2-9.11-2-7.12 1.56 1 1.83 6.13-1.34 9.11 2 9.11-2 9.11 2 5.76-1.27-.23-2-5.53 1.22zM343.64 384.83l9.11 2 9.11-2 9.11 2 9.11-2 4.41 1v-2l-4.42-1-9.11 2-9.11-2-9.11 2-9.11-2-9.1 2-3.94-.87-.25 2 4.19.92zM384.41 391.36l-4.33-.95-9.11 2-9.11-2-9.11 2-9.11-2-9.1 2-4.91-1.08-.26 2 5.17 1.13 9.1-2 9.11 2 9.11-2 9.11 2 9.11-2 4.29.95.04-2.05zM323.07 281.63l3.3.72 9.11-2 9.11 2 9.11-2 9.11 2 2.73-.6-.36-2-2.37.52-9.11-2-9.11 2-9.11-2-9.11 2-2.7-.59q-.33 1.01-.6 1.95zM353.7 285.92l-9.11 2-9.11-2-9.11 2-4.24-.93a17.52 17.52 0 000 2.05l4.24.93 9.11-2 9.11 2 9.11-2 9.11 2 3.9-.86-.29-2-3.61.79zM353.7 293.54l-9.11 2-9.11-2-9.11 2-2.6-.57c.2.37.42.74.66 1.1s.53.81.81 1.27l1.13.25 9.11-2 9.11 2 9.11-2 9.11 2 4.88-1.07-.25-2-4.63 1zM343.64 377.22l9.11 2 9.11-2 9.11 2 9.11-2 4.4 1v-2.05l-4.37-1-9.11 2-9.11-2-9.11 2-9.11-2-9.1 2-3-.67-.24 2 3.27.72z"/></g><path d="M335.14 315.93c.26.78-.52 11.75-1.05 30.82-.4 14.63-3.87 40.63-5.47 51.93h55.59c.4-11.46.9-37.67-2.32-48.54-4.18-14.1-8.88-17-10.44-23.24s-3.92-40.75-7.84-53.81-15.67-20.9-17.5-23.77-7.58-19.59-7.58-19.59l-9.92 8.36s7.31 11.75 8.36 15.41-7.06 12.27-11.23 21.16-5 15.93-1.31 21.41 10.45 19.07 10.71 19.86zM328.6 299.06s3.36 6.73 14.58 4.11M359.25 342.42s-16.82 20.56-24.3 37M341.31 359.25s-7.11 13.08-9 21.3" fill="none" stroke="#263238" stroke-linecap="round" stroke-linejoin="round"/><path d="M331.81 272.63c5.43-3 12.36-16 15.38-18.4l2.06-1.65a23.13 23.13 0 01-3.14-3.26c-1.83-2.87-7.58-19.59-7.58-19.59l-9.92 8.36s7.31 11.75 8.36 15.41c.92 3.23-5.29 10.34-9.63 18.07.51 1.43 1.71 2.59 4.47 1.06z" fill="#fff" stroke="#263238" stroke-linecap="round" stroke-linejoin="round"/><path d="M319.85 209.62a21.64 21.64 0 00-1.7 8.68c.18 2.64.75 4.73-.31 7.34-.62 1.5-2.72 3.41-2.43 5.14.26 1.56 4.18 2.09 4.18 2.09s3.92 12.27 6 12.53 6.79-1 12.79-6-1.3-23-6.53-27.69-9.39-5.23-12-2.09z" fill="#fff" stroke="#263238" stroke-linecap="round" stroke-linejoin="round"/><ellipse cx="321.63" cy="224.07" rx=".68" ry="1.92" fill="#263238"/><path d="M319.82 219.66s.68-2.72 3.4-.68M321.18 235.5s1.81.46 3.85-2" fill="none" stroke="#263238" stroke-linecap="round" stroke-linejoin="round"/><path d="M325.6 195.77s-9.67.27-11.24 6.53 5.49 11.76 10.45 14.37 9.4 6.79 9.4 11.23.27 9.67 3.92 14.37 12 8.62 18.55 8.36-.52-15.63 3.13-26.63-1-21.94-8.36-26.64-25.85-1.59-25.85-1.59z" fill="#263238" stroke="#263238" stroke-linecap="round" stroke-linejoin="round"/><path d="M384.64 290.61a22.2 22.2 0 01-.64 4.06M323.38 212c1.8 3 5.21 6.2 11.62 8 14 4 19.33 13.67 19.33 22s.67 14.33 14 21A29.67 29.67 0 01384 283M321.33 205.33a9.29 9.29 0 00.17 1.73" fill="none" stroke="#fff" stroke-linecap="round" stroke-linejoin="round"/><path d="M340 205.33s16.67 8.34 16.33 19.67.67 22 11 28.33 21 10.34 24.67 23" fill="none" stroke="#fff" stroke-linecap="round" stroke-linejoin="round"/><path d="M349.3 266s-4.43 1.68-6.74 10.32 7.16 23.81 8.64 30.56 2.95 17.06 2.95 17.06-33.09 27-37.93 31.19-7.38 6.95-7.38 6.95-12 10.54-13.06 12.65-4 13.06-2.95 13.48 2.95-4.21 2.95-5.05 2.1-5.48 2.1-5.48-1.68 10.72-1.68 11.32 1.68 0 1.89-.85 2.53-9.69 2.53-9.69-1.26 9.9-.42 11 2.32-6.32 2.32-6.32l1.68-5.9s-.42 10.32.43 10.74 2.74-10.11 2.74-10.11 3.79-7.59 5.26-10.12a17.1 17.1 0 001.9-4.42s19.6-10.75 31.82-16.65 22.55-16.86 23.81-18.75-1.48-28.45-3.58-39.83-6.53-25.1-17.28-22.1zM280.84 252.42s-7.54 5.13-13.57 10-5.13 14.48-5.13 16.59-.3 11.76-.3 11.76l-4.53 9.65s-6.93 6.34-8.44 7.85-10.25 18.69-10.25 18.69l-2.11 3 11.49 1.48a98.88 98.88 0 0114.17-13C269.68 313 276 298 276.31 296.15a105.78 105.78 0 002.69-15.38" fill="#fff" stroke="#263238" stroke-linecap="round" stroke-linejoin="round"/><path d="M277 292.93c-5.07-8.32-12-7.24-15.08-6.2l-.12 4-4.53 9.65s-6.93 6.34-8.44 7.85-10.25 18.69-10.25 18.69l-2.11 3 11.53 1.52a98.88 98.88 0 0114.17-13C269.68 313 276 298 276.31 296.15c.11-.61.39-1.73.69-3.22z" fill="#fff" stroke="#263238" stroke-linecap="round" stroke-linejoin="round"/><path d="M242.92 323s-7.49 6.12-9 8.06-2.69 13.35-2.09 14.18 4.79 3.06 6.59 1.11 8.39-11.35 8.39-11.35-5 6.76-1.43 6.38 5.62-5.88 7.72-8.38 1.8-2.78 0-6.39l-1.79-3.61" fill="#fff" stroke="#263238" stroke-linecap="round" stroke-linejoin="round"/><path d="M231.84 345.23s3.81-13 5.33-14M233.63 346.18s4.42-12.22 6.7-14.75M236 347.05s4.79-12 7.93-14.91" fill="none" stroke="#263238" stroke-linecap="round" stroke-linejoin="round"/><path d="M246.81 335s2.55-2.26 2.94-3.62" fill="#fff" stroke="#263238" stroke-linecap="round" stroke-linejoin="round"/></g></svg>